<svg xmlns="http://www.w3.org/2000/svg" viewBox="0 0 175 110" width="175" height="110">
	<style>
		tspan { white-space:pre }
		.shp0 { fill: #000000 } 
	</style>
	<path id="Shape 1" class="shp0" d="M57 68C49.81 68 44 62.19 44 55C44 47.81 49.81 42 57 42C64.19 42 70 47.81 70 55C70 62.19 64.19 68 57 68Z" />
	<path id="Shape 1 copy" class="shp0" d="M92 68C84.81 68 79 62.19 79 55C79 47.81 84.81 42 92 42C99.19 42 105 47.81 105 55C105 62.19 99.19 68 92 68Z" />
	<path id="Shape 1 copy 2" class="shp0" d="M129 68C121.81 68 116 62.19 116 55C116 47.81 121.81 42 129 42C136.19 42 142 47.81 142 55C142 62.19 136.19 68 129 68Z" />
</svg>