<svg xmlns="http://www.w3.org/2000/svg" viewBox="0 0 366 181" width="366" height="181">
	<style>
		tspan { white-space:pre }
		.shp0 { fill: #d4d4d4 } 
		.shp1 { fill: #00498c } 
		.shp2 { fill: #ff7800 } 
	</style>
	<g id="Layer">
		<path id="Layer" class="shp0" d="M366 51L253 51L253 78L366 78L366 51Z" />
		<path id="Layer" class="shp0" d="M366 0L253 0L253 27L366 27L366 0Z" />
		<g id="Layer">
			<path id="Layer" fill-rule="evenodd" class="shp1" d="M259.27 181C288.56 181 312.31 156.95 312.31 127.69L312.31 104.28C312.31 104.28 311.77 109.91 310.38 115.39C309.72 117.77 308.9 120.09 307.92 122.32C307.85 122.49 307.77 122.65 307.71 122.81C299.51 141.13 281.18 153.78 259.84 154L0 154L0 181L259.27 181Z" />
			<path id="Layer" fill-rule="evenodd" class="shp2" d="M259.27 0C288.56 0 312.31 24.51 312.31 53.77L312.31 77.19C312.31 77.19 311.77 71.55 310.38 66.08C309.72 63.69 308.9 61.37 307.92 59.14C307.85 58.98 307.77 58.81 307.71 58.65C299.51 40.33 281.18 27.22 259.84 27L0 27L0 0L259.27 0Z" />
			<path id="Layer" fill-rule="evenodd" class="shp2" d="M259.27 51L0 51L0 78L259.27 78C272.73 78.15 284.5 82.97 293.62 90.73C298.05 86.96 301.85 82.48 304.84 77.46C295.59 61.97 278.65 51 259.27 51Z" />
			<path id="Layer" fill-rule="evenodd" class="shp1" d="M259.27 130C288.56 130 312.31 106.15 312.31 76.9L312.31 53.48C312.31 53.48 311.77 59.12 310.38 64.59C309.72 66.98 308.9 69.29 307.92 71.53C307.85 71.69 307.77 71.85 307.71 72.01C299.51 90.34 281.18 102.78 259.84 103L0 103L0 130L259.27 130Z" />
		</g>
	</g>
</svg>