<?xml version="1.0" encoding="iso-8859-1"?>
<!-- Generator: Adobe Illustrator 18.0.0, SVG Export Plug-In . SVG Version: 6.00 Build 0)  -->
<!DOCTYPE svg PUBLIC "-//W3C//DTD SVG 1.1//EN" "http://www.w3.org/Graphics/SVG/1.1/DTD/svg11.dtd">
<svg version="1.1" id="Capa_1" xmlns="http://www.w3.org/2000/svg" xmlns:xlink="http://www.w3.org/1999/xlink" x="0px" y="0px"
	 viewBox="0 0 461.277 461.277" style="enable-background:new 0 0 461.277 461.277;fill:#000000" xml:space="preserve">
<path d="M461.209,252.457c-0.583-8.897-4.959-17.099-12.006-22.503c-9.23-7.081-20.272-10.823-31.932-10.823
	c-17.091,0-31.592,8.505-40.257,21.984c-0.788-1.849-1.66-3.592-2.625-5.225c-6.933-11.778-18.135-17.75-33.296-17.75
	c-27.547,0-54.2-9.003-75.475-25.411c0.023-3.13-0.382-6.331-1.226-9.6c-0.961-3.724-2.493-7.498-4.599-11.349l14.43-14.43
	c3.109,0.8,6.269,1.303,9.447,1.49c0.927,0.054,1.85,0.081,2.771,0.081c12.487,0,24.287-4.969,33.479-14.161
	c8.244-8.245,13.406-18.699,14.926-30.232c1.161-8.804-1.544-17.697-7.422-24.401c-4.513-5.147-10.546-8.624-17.136-9.992
	c-1.369-6.588-4.845-12.623-9.991-17.135c-6.704-5.878-15.599-8.585-24.402-7.423c-11.533,1.521-21.987,6.682-30.232,14.926
	c-12.507,12.507-16.614,29.495-12.537,45.65l-15.589,15.589c-2.349-1.031-4.674-1.853-6.978-2.448
	c-13.233-3.415-25.373,0.286-36.085,10.999l0,0c-21.116,21.115-48.737,33.924-77.778,36.067
	c-26.157,1.93-50.789,13.219-69.357,31.788C6.909,228.581-2.368,253.536,0.514,280.318c2.567,23.858,14.495,47.635,34.543,68.922
	l-16.282,16.282c-1.478,1.478-2.218,3.54-2.018,5.62c0.2,2.081,1.32,3.963,3.053,5.132l42.23,28.49
	c1.192,0.804,2.556,1.197,3.913,1.197c1.806,0,3.599-0.697,4.952-2.05l18.498-18.498c9.722,3.221,19.58,4.918,29.356,4.982
	c0.189,0.001,0.377,0.002,0.567,0.002c15.644,0,30.577-4.267,44.114-12.458c8.071,2.157,16.675,3.254,25.631,3.254
	c24.845,0,49.183-8.549,68.535-24.073c21.978-17.648,49.646-27.367,77.911-27.367h5.579c15.15,0,26.352-5.969,33.295-17.74
	c1.457-2.47,2.705-5.189,3.76-8.153c8.767,12.493,22.759,20.287,39.122,20.287c11.659,0,22.701-3.743,31.932-10.823
	c7.046-5.405,11.422-13.607,12.006-22.503c0.448-6.83-1.36-13.555-5.051-19.182C459.849,266.012,461.658,259.287,461.209,252.457z
	 M255.563,80.405c6.047-6.046,13.71-9.832,22.163-10.946c0.758-0.1,1.513-0.149,2.262-0.149c4.064,0,7.933,1.46,11.08,4.219
	c3.732,3.273,5.874,7.995,5.874,12.956c0,3.866,3.134,7,7,7c4.961,0,9.684,2.141,12.957,5.874c3.267,3.726,4.712,8.464,4.069,13.341
	c-1.114,8.452-4.899,16.116-10.946,22.163c-7.106,7.105-15.937,10.559-25.532,10.003c-9.433-0.552-18.791-5.02-26.35-12.579
	c-7.559-7.559-12.026-16.917-12.578-26.35C244.999,96.339,248.458,87.51,255.563,80.405z M238.913,130.169
	c2.484,4.23,5.585,8.276,9.327,12.018c3.688,3.688,7.733,6.817,12.012,9.34l-8.497,8.497c-2.517-3.094-5.375-6.248-8.607-9.48
	c-4.521-4.521-8.893-8.326-13.154-11.455L238.913,130.169z M201.307,142.085c1.864,0,3.779,0.258,5.754,0.768
	c7.688,1.983,16.498,7.902,26.186,17.59s15.606,18.499,17.59,26.186c1.271,4.927,0.958,9.462-0.983,13.83
	c-1.094-2.455-2.624-4.701-4.555-6.632c-3.193-3.193-7.233-5.31-11.682-6.123c-1.64-0.299-3.126-1.078-4.299-2.25
	c-1.172-1.172-1.951-2.659-2.25-4.298c-0.813-4.45-2.93-8.49-6.123-11.683c-3.192-3.192-7.231-5.309-11.683-6.123
	c-1.639-0.299-3.123-1.075-4.291-2.242c-1.172-1.172-1.95-2.659-2.25-4.299c-0.813-4.45-2.93-8.49-6.122-11.682
	c-0.658-0.658-1.36-1.258-2.086-1.823C196.723,142.492,198.977,142.085,201.307,142.085z M65.085,389.932l-30.407-20.514
	l10.409-10.409c9.605,8.57,19.795,15.497,30.281,20.64L65.085,389.932z M118.849,376.396c-24.55-0.161-50.042-12.539-71.78-34.853
	c-18.766-19.265-30.356-41.54-32.636-62.723c-2.413-22.424,5.473-43.438,22.805-60.771c16.196-16.196,37.678-26.042,60.488-27.725
	c31.238-2.305,60.971-15.648,84.117-37.668c0.186,0.039,0.372,0.086,0.559,0.12c1.641,0.299,3.127,1.077,4.299,2.25
	c1.172,1.172,1.951,2.659,2.25,4.298c0.813,4.45,2.93,8.49,6.123,11.683c3.188,3.188,7.226,5.303,11.674,6.115
	c1.64,0.3,3.126,1.078,4.299,2.25c1.172,1.172,1.95,2.659,2.25,4.299c0.813,4.45,2.93,8.489,6.123,11.682
	c3.192,3.192,7.231,5.309,11.683,6.123c1.639,0.299,3.125,1.077,4.298,2.25c1.172,1.172,1.95,2.659,2.25,4.297
	c0.344,1.884,0.937,3.696,1.737,5.407c-22.13,22.205-36.19,51.548-39.594,82.652c-2.387,21.811-11.868,41.558-27.417,57.107
	C156.845,368.719,138.815,376.485,118.849,376.396z M248.842,346.202c-17.118,13.732-37.787,20.991-59.771,20.991
	c-3.571,0-7.065-0.21-10.474-0.605c1.243-1.131,2.472-2.293,3.68-3.501c17.572-17.572,28.735-40.828,31.434-65.483
	c3.067-28.025,15.759-54.461,35.739-74.441l3.946-3.947c3.746-3.746,6.615-7.671,8.642-11.752
	c20.155,14.1,44.105,22.533,69.075,24.315c0.146,0.228,0.287,0.46,0.441,0.681c0.948,1.372,1.449,2.973,1.449,4.631
	s-0.501,3.259-1.448,4.63c-2.572,3.721-3.932,8.075-3.932,12.59c0,4.509,1.359,8.859,3.932,12.58
	c0.947,1.371,1.448,2.972,1.448,4.63s-0.501,3.259-1.448,4.63c-2.572,3.721-3.932,8.075-3.932,12.59s1.359,8.869,3.932,12.59
	c0.947,1.371,1.448,2.972,1.448,4.63s-0.501,3.259-1.447,4.629c-1.147,1.659-2.046,3.453-2.699,5.331
	C299.752,317.333,271.563,327.956,248.842,346.202z M344.792,315.595c1.451-2.992,2.209-6.269,2.209-9.635
	c0-4.515-1.359-8.869-3.932-12.59c-0.947-1.371-1.448-2.972-1.448-4.63s0.501-3.259,1.449-4.63c2.572-3.722,3.931-8.075,3.931-12.59
	c0-4.515-1.359-8.869-3.932-12.59c-0.947-1.371-1.448-2.969-1.448-4.62c0-1.658,0.501-3.259,1.448-4.63
	c2.572-3.721,3.932-8.075,3.932-12.59c0-1.549-0.172-3.076-0.486-4.569c7.186,1.078,12.283,4.479,15.815,10.48
	c4.034,6.831,6.08,17.244,6.08,30.951C368.41,307.447,356.479,314.542,344.792,315.595z M442.231,276.588
	c3.508,3.508,5.333,8.361,5.008,13.315c-0.325,4.945-2.653,9.318-6.557,12.312c-6.765,5.188-14.86,7.931-23.411,7.931
	c-20.202,0-34.865-16.195-34.865-38.508c0-22.313,14.663-38.507,34.865-38.507c8.551,0,16.646,2.743,23.411,7.931
	c3.904,2.994,6.232,7.367,6.557,12.312c0.325,4.954-1.5,9.807-5.008,13.315c-1.313,1.313-2.05,3.093-2.05,4.95
	S440.918,275.275,442.231,276.588z"/>
<g>
</g>
<g>
</g>
<g>
</g>
<g>
</g>
<g>
</g>
<g>
</g>
<g>
</g>
<g>
</g>
<g>
</g>
<g>
</g>
<g>
</g>
<g>
</g>
<g>
</g>
<g>
</g>
<g>
</g>
</svg>
