<?xml version="1.0"?>
<svg xmlns="http://www.w3.org/2000/svg" width="512" height="512" viewBox="0 0 128 128"><g><path d="M16,31.942h96a1.75,1.75,0,0,0,0-3.5H16a1.75,1.75,0,0,0,0,3.5Z"/><path d="M106.479,53.008a13.236,13.236,0,0,0-4.219-4.944,1.75,1.75,0,0,0-1.92,2.926,9.911,9.911,0,0,1,3.043,3.653,1.751,1.751,0,0,0,3.1-1.635Z"/><path d="M22.234,99.558H35.673a1.75,1.75,0,0,0,0-3.5H22.234a1.75,1.75,0,1,0,0,3.5Z"/><path d="M57.28,99.558H70.72a1.75,1.75,0,0,0,0-3.5H57.28a1.75,1.75,0,0,0,0,3.5Z"/><path d="M92.327,99.558h13.44a1.75,1.75,0,0,0,0-3.5H92.327a1.75,1.75,0,0,0,0,3.5Z"/><path d="M119.75,65.438V30.19A7.759,7.759,0,0,0,112,22.44H16a7.759,7.759,0,0,0-7.75,7.75V65.438A4.738,4.738,0,0,0,9.5,74.75h2.007l3.036,24.03a7.767,7.767,0,0,0,7.687,6.78H35.67a7.771,7.771,0,0,0,7.7-6.782L44.093,93h4.765l.736,5.78a7.765,7.765,0,0,0,7.686,6.78H70.72a7.765,7.765,0,0,0,7.686-6.779L79.142,93h4.764l.728,5.78a7.77,7.77,0,0,0,7.7,6.78h13.44a7.765,7.765,0,0,0,7.686-6.781l3.037-24.029H118.5a4.738,4.738,0,0,0,1.25-9.312ZM16,25.94h96a4.255,4.255,0,0,1,4.25,4.25V65.25H115c.015-.419.029-.838.029-1.25,0-12.754-7.38-23.13-16.45-23.13S82.14,51.246,82.14,64c0,.41.014.83.029,1.25H80.421c.015-.419.029-.838.029-1.25,0-12.754-7.38-23.13-16.45-23.13S47.55,51.246,47.55,64c0,.411.014.83.029,1.25H45.831c.015-.419.029-.838.029-1.25,0-12.754-7.375-23.13-16.44-23.13S12.97,51.246,12.97,64c0,.412.014.831.03,1.25H11.75V30.19A4.255,4.255,0,0,1,16,25.94ZM85.67,65.25c-.018-.422-.03-.84-.03-1.25,0-10.824,5.8-19.63,12.94-19.63S111.53,53.176,111.53,64c0,.412-.012.83-.029,1.25Zm-34.59,0c-.018-.421-.03-.84-.03-1.25,0-10.824,5.809-19.63,12.95-19.63S76.95,53.176,76.95,64c0,.412-.012.83-.029,1.25Zm-34.58,0c-.018-.42-.03-.839-.03-1.25,0-10.824,5.809-19.63,12.95-19.63S42.36,53.176,42.36,64c0,.411-.012.83-.03,1.25Zm93.483,33.09a4.258,4.258,0,0,1-4.213,3.72H92.33a4.264,4.264,0,0,1-4.224-3.718l-.919-7.311A1.751,1.751,0,0,0,85.45,89.5H77.6a1.752,1.752,0,0,0-1.737,1.529l-.929,7.311a4.259,4.259,0,0,1-4.214,3.72H57.28a4.259,4.259,0,0,1-4.214-3.721l-.93-7.31A1.75,1.75,0,0,0,50.4,89.5H42.55a1.751,1.751,0,0,0-1.737,1.531l-.919,7.309a4.264,4.264,0,0,1-4.224,3.72H22.23a4.259,4.259,0,0,1-4.214-3.719L15.035,74.75h97.93ZM118.5,71.25H9.5a1.25,1.25,0,0,1,0-2.5h109a1.25,1.25,0,0,1,0,2.5Z"/></g></svg>
