<svg width="14" height="14" viewBox="0 0 14 14" fill="none" xmlns="http://www.w3.org/2000/svg">
<g clip-path="url(#clip0)">
<path d="M2.96858 8.31514C3.34125 8.08392 3.74919 7.91181 4.181 7.80356C5.04135 7.58784 5.99652 7.58336 7.18707 7.78951L7.27734 7.80512C7.386 7.82388 7.46538 7.91813 7.46538 8.02838V9.42158C7.46538 9.4852 7.50828 9.51635 7.52674 9.5268C7.54517 9.53719 7.59398 9.55791 7.6485 9.52518C7.64998 9.52428 7.65148 9.52338 7.65304 9.52253L13.4899 6.19763C13.5413 6.16575 13.5469 6.11538 13.5469 6.09504C13.5469 6.07472 13.5413 6.02433 13.4899 5.99244L7.65298 2.66755C7.65148 2.6667 7.64998 2.6658 7.64847 2.66492C7.59387 2.63211 7.54511 2.65286 7.52668 2.66331C7.50823 2.67372 7.46532 2.7049 7.46532 2.76853V4.16167C7.46532 4.27397 7.38307 4.36931 7.27195 4.38578C7.18046 4.39934 7.08894 4.41293 6.99572 4.42685C6.39963 4.51128 5.79705 4.65087 5.20481 4.84171C5.08576 4.87999 4.95809 4.81464 4.9197 4.69553C4.88133 4.57644 4.94677 4.4488 5.06588 4.41041C5.68262 4.21168 6.31057 4.06624 6.93048 3.97843C6.95769 3.97439 6.98497 3.97034 7.01218 3.96627V2.7685C7.01218 2.55891 7.12112 2.37212 7.3035 2.2689C7.48507 2.16614 7.70004 2.16847 7.87925 2.27489L13.717 5.60033C13.7186 5.60118 13.7201 5.60208 13.7216 5.60299C13.8959 5.70771 14 5.89165 14 6.09506C14 6.29848 13.8959 6.48236 13.7216 6.58709C13.7201 6.58799 13.7186 6.58889 13.717 6.58974L7.87936 9.91513C7.78798 9.96941 7.68727 9.99664 7.58643 9.99664C7.48955 9.99664 7.39256 9.97149 7.30358 9.92117C7.12112 9.81795 7.01224 9.63117 7.01224 9.42158V8.21951C5.93175 8.04131 5.06484 8.04908 4.29123 8.24306C3.90491 8.33994 3.54031 8.49372 3.20743 8.70016C3.10122 8.76612 2.96144 8.73339 2.89549 8.62705C2.82951 8.52076 2.86221 8.38109 2.96858 8.31514Z" fill="black"/>
<path d="M1.23822 6.96741C1.93038 6.04691 2.93338 5.28278 4.13868 4.7577C4.25336 4.70774 4.3869 4.76024 4.43686 4.87495C4.48682 4.98966 4.43435 5.12318 4.31961 5.17313C3.1859 5.66702 2.2456 6.38165 1.60037 7.23975C0.793639 8.3127 0.379378 9.72514 0.463816 11.1149L0.464062 11.1188C0.472375 11.25 0.584185 11.3536 0.714944 11.3536C0.717924 11.3536 0.720905 11.3535 0.723912 11.3534L0.740592 11.3528C0.852292 11.3487 0.948953 11.2711 0.975668 11.1637L0.97884 11.1512C1.13506 10.552 1.3849 9.99916 1.72156 9.50806C1.86744 9.29516 2.03328 9.09511 2.21446 8.91347C2.30278 8.82488 2.44625 8.82466 2.53485 8.91309C2.62344 9.00141 2.62363 9.14488 2.53523 9.23347C2.37357 9.39551 2.22559 9.57407 2.09529 9.76416C1.7883 10.2119 1.56023 10.7171 1.41746 11.2647L1.41525 11.2734C1.34005 11.5754 1.06932 11.7942 0.75615 11.8056L0.740647 11.8062C0.731733 11.8065 0.722928 11.8067 0.714096 11.8067C0.341562 11.8067 0.0354738 11.5219 0.0117121 11.1465L0.011466 11.1425C-0.0793161 9.6468 0.367813 8.12509 1.23822 6.96741Z" fill="black"/>
</g>
<defs>
<clipPath id="clip0">
<rect width="14" height="14" fill="white" transform="matrix(-1 0 0 1 14 0)"/>
</clipPath>
</defs>
</svg>
