<svg width="15" height="15" viewBox="0 0 15 15" fill="none" xmlns="http://www.w3.org/2000/svg">
<g clip-path="url(#clip0)">
<path d="M11.8194 8.90905C11.4201 8.66131 10.983 8.47692 10.5204 8.36093C9.59855 8.12981 8.57515 8.125 7.29956 8.34587L7.20286 8.3626C7.08643 8.3827 7.00138 8.48369 7.00138 8.60181V10.0945C7.00138 10.1627 6.95541 10.1961 6.93564 10.2073C6.91589 10.2184 6.8636 10.2406 6.80518 10.2055C6.8036 10.2046 6.80199 10.2036 6.80032 10.2027L0.546505 6.64029C0.491515 6.60613 0.485479 6.55217 0.485479 6.53037C0.485479 6.5086 0.491515 6.45461 0.546505 6.42045L6.80037 2.85806C6.80199 2.85715 6.8036 2.85618 6.80521 2.85525C6.86371 2.82009 6.91595 2.84233 6.9357 2.85352C6.95547 2.86468 7.00144 2.89808 7.00144 2.96625V4.4589C7.00144 4.57922 7.08956 4.68138 7.20863 4.69902C7.30665 4.71355 7.40471 4.72811 7.50458 4.74302C8.14326 4.83349 8.78887 4.98305 9.42342 5.18752C9.55098 5.22853 9.68776 5.15851 9.7289 5.03089C9.77 4.90331 9.69989 4.76655 9.57227 4.72542C8.91148 4.51249 8.23868 4.35666 7.57449 4.26258C7.54534 4.25825 7.5161 4.25391 7.48695 4.24955V2.96622C7.48695 2.74166 7.37023 2.54153 7.17482 2.43094C6.98029 2.32084 6.74995 2.32333 6.55794 2.43735L0.303165 6.00033C0.301553 6.00124 0.299942 6.00221 0.298301 6.00317C0.111504 6.11538 0 6.31246 0 6.5304C0 6.74834 0.111504 6.94536 0.298331 7.05757C0.299913 7.05854 0.301524 7.0595 0.303194 7.06041L6.55783 10.6233C6.65574 10.6815 6.76364 10.7107 6.87168 10.7107C6.97548 10.7107 7.0794 10.6837 7.17473 10.6298C7.37023 10.5192 7.48689 10.3191 7.48689 10.0945V8.8066C8.64456 8.61567 9.57339 8.62399 10.4023 8.83182C10.8162 8.93562 11.2068 9.10039 11.5635 9.32158C11.6773 9.39224 11.827 9.35717 11.8977 9.24324C11.9684 9.12936 11.9333 8.97971 11.8194 8.90905Z" fill="black"/>
<path d="M13.6733 7.46507C12.9317 6.47881 11.8571 5.66011 10.5657 5.09752C10.4428 5.04399 10.2997 5.10024 10.2462 5.22314C10.1927 5.34605 10.2489 5.4891 10.3718 5.54263C11.5865 6.07179 12.594 6.83747 13.2853 7.75686C14.1497 8.90645 14.5935 10.4198 14.5031 11.9088L14.5028 11.913C14.4939 12.0536 14.3741 12.1645 14.234 12.1645C14.2308 12.1645 14.2276 12.1644 14.2244 12.1644L14.2065 12.1637C14.0868 12.1593 13.9833 12.0761 13.9546 11.9611L13.9512 11.9477C13.7839 11.3057 13.5162 10.7134 13.1555 10.1872C12.9992 9.95909 12.8215 9.74475 12.6274 9.55013C12.5327 9.45521 12.379 9.45497 12.2841 9.54972C12.1892 9.64435 12.189 9.79807 12.2837 9.89299C12.4569 10.0666 12.6154 10.2579 12.755 10.4616C13.084 10.9414 13.3283 11.4826 13.4813 12.0693L13.4837 12.0786C13.5642 12.4022 13.8543 12.6367 14.1898 12.6488L14.2065 12.6495C14.216 12.6498 14.2254 12.65 14.2349 12.65C14.634 12.65 14.962 12.3448 14.9875 11.9426L14.9877 11.9384C15.085 10.3358 14.6059 8.70544 13.6733 7.46507Z" fill="black"/>
</g>
<defs>
<clipPath id="clip0">
<rect width="15" height="15" fill="white"/>
</clipPath>
</defs>
</svg>
