<svg height="512" viewBox="0 0 128 128" width="512" xmlns="http://www.w3.org/2000/svg"><g><path d="m121.99 20.658a1.749 1.749 0 0 0 -2.885-.647l-13.882 13.883-10.667-.45-.45-10.667 13.883-13.877a1.749 1.749 0 0 0 -.647-2.885 24.267 24.267 0 0 0 -31.417 30l-39.9 39.9a24.305 24.305 0 1 0 16.075 16.056l39.895-39.9a24.267 24.267 0 0 0 30-31.417zm-8.143 22.919a20.9 20.9 0 0 1 -21.741 4.85 1.749 1.749 0 0 0 -1.827.41l-41.423 41.423a1.751 1.751 0 0 0 -.41 1.827 20.743 20.743 0 1 1 -12.533-12.533 1.748 1.748 0 0 0 1.827-.41l41.423-41.423a1.748 1.748 0 0 0 .41-1.827 20.762 20.762 0 0 1 23.833-27.366l-12.317 12.318a1.746 1.746 0 0 0 -.511 1.31l.549 13.044a1.749 1.749 0 0 0 1.673 1.673l13.042.549a1.737 1.737 0 0 0 1.31-.511l12.318-12.317a20.9 20.9 0 0 1 -5.623 18.983z"/><path d="m34.1 88.268a1.75 1.75 0 0 0 -1.238-.513h-7.962a1.746 1.746 0 0 0 -1.237.513l-5.626 5.632a1.754 1.754 0 0 0 -.513 1.238v7.962a1.75 1.75 0 0 0 .513 1.237l5.63 5.63a1.75 1.75 0 0 0 1.237.513h7.961a1.754 1.754 0 0 0 1.238-.513l5.629-5.63a1.746 1.746 0 0 0 .513-1.237v-7.965a1.75 1.75 0 0 0 -.513-1.238zm2.642 14.1-4.6 4.605h-6.513l-4.605-4.605v-6.509l4.605-4.6h6.512l4.6 4.6z"/><path d="m77.066 50.938-3.817 3.818a1.75 1.75 0 1 0 2.475 2.474l3.817-3.817a1.75 1.75 0 0 0 -2.475-2.475z"/><path d="m66.562 61.442-11.594 11.6a1.75 1.75 0 0 0 2.474 2.475l11.6-11.595a1.75 1.75 0 0 0 -2.475-2.475z"/></g></svg>