<?xml version="1.0" encoding="iso-8859-1"?>
<!-- Generator: Adobe Illustrator 19.0.0, SVG Export Plug-In . SVG Version: 6.00 Build 0)  -->
<svg style="fill:#ffffff" version="1.1" id="Capa_1" xmlns="http://www.w3.org/2000/svg" xmlns:xlink="http://www.w3.org/1999/xlink" x="0px" y="0px"
	 viewBox="0 0 512 512" style="enable-background:new 0 0 512 512;" xml:space="preserve">
<g>
	<g>
		<path d="M504.178,497H443.33V188.411c0-4.143-3.357-7.5-7.5-7.5s-7.5,3.357-7.5,7.5V497h-61.001V106.243h61.001v27.833
			c0,4.143,3.357,7.5,7.5,7.5s7.5-3.357,7.5-7.5v-30.334c0-6.893-5.607-12.5-12.5-12.5h-66.001c-6.893,0-12.5,5.607-12.5,12.5V497
			h-51.001V35.742c0-6.893-5.607-12.5-12.5-12.5h-66.001c-6.893,0-12.5,5.607-12.5,12.5V497h-51.001V342.414
			c0-4.143-3.357-7.5-7.5-7.5s-7.5,3.357-7.5,7.5V497H83.323V263.246h61.001v24.825c0,4.143,3.357,7.5,7.5,7.5s7.5-3.357,7.5-7.5
			v-27.326c0-6.893-5.607-12.5-12.5-12.5H80.823c-6.893,0-12.5,5.607-12.5,12.5V497H15.322l0.25-489.5c0-4.143-3.357-7.5-7.5-7.5
			s-7.5,3.357-7.5,7.5l-0.25,497c0,4.143,3.357,7.5,7.5,7.5h68.001h76.001h66.001h76.001h66.001h76.001h68.348
			c4.143,0,7.5-3.357,7.5-7.5C511.678,500.357,508.321,497,504.178,497z M286.327,497h-61.001V38.242h61.001V497z"/>
	</g>
</g>
<g>
</g>
<g>
</g>
<g>
</g>
<g>
</g>
<g>
</g>
<g>
</g>
<g>
</g>
<g>
</g>
<g>
</g>
<g>
</g>
<g>
</g>
<g>
</g>
<g>
</g>
<g>
</g>
<g>
</g>
</svg>
