<svg width="14" height="13" viewBox="0 0 14 13" fill="none" xmlns="http://www.w3.org/2000/svg">
<path d="M13.9496 6.34083C13.9179 6.30438 13.1589 5.43791 11.9235 4.55947C11.4924 4.25289 10.971 3.92422 10.3821 3.63339L13.9339 0.355785C14.0172 0.278977 14.0224 0.149231 13.9456 0.0659966C13.8688 -0.0172376 13.739 -0.0224329 13.6558 0.0543482L9.9802 3.44622C9.09274 3.05671 8.07687 2.77272 6.99999 2.77272C5.77956 2.77272 4.50997 3.13024 3.22648 3.83532C3.12722 3.88985 3.09094 4.01453 3.14549 4.11382C3.20004 4.21308 3.3247 4.24934 3.42399 4.19481C4.64628 3.52333 5.84942 3.18288 7.00002 3.18288C7.94718 3.18288 8.84859 3.41809 9.65014 3.75083L8.91109 4.43284C8.41049 3.96417 7.73824 3.67673 7.00002 3.67673C5.4568 3.67673 4.20131 4.93222 4.20131 6.47544C4.20131 7.13314 4.42947 7.73847 4.81067 8.21674L3.94168 9.01865C3.32008 8.72419 2.77055 8.38113 2.32239 8.06296C1.40403 7.41103 0.744743 6.75161 0.483666 6.47547C0.789887 6.15175 1.64388 5.30108 2.82379 4.55055C2.91936 4.48977 2.94755 4.363 2.88676 4.26744C2.82598 4.17187 2.69924 4.14365 2.60365 4.20446C1.06546 5.1829 0.0911198 6.29401 0.0503777 6.34083C-0.016751 6.41799 -0.016751 6.53283 0.0503777 6.61C0.082069 6.64645 0.841129 7.51292 2.07643 8.39136C2.50753 8.69794 3.02901 9.02661 3.61782 9.31743L0.065991 12.5951C-0.0172432 12.6719 -0.0224385 12.8016 0.0543699 12.8849C0.0947839 12.9287 0.149881 12.9509 0.205143 12.9509C0.254881 12.9509 0.304756 12.9329 0.344158 12.8965L4.01975 9.50466C4.90722 9.89417 5.92309 10.1782 6.99999 10.1782C8.99263 10.1782 10.7773 9.2065 11.9236 8.39139C13.1589 7.51294 13.9179 6.64648 13.9497 6.61003C14.0167 6.53284 14.0167 6.41799 13.9496 6.34083ZM4.61141 6.47541C4.61141 5.15835 5.6829 4.08686 6.99996 4.08686C7.61919 4.08686 8.18408 4.32377 8.60892 4.71164L7.71309 5.53832C7.51495 5.38719 7.26782 5.29717 6.99999 5.29717C6.3503 5.29717 5.82172 5.82573 5.82172 6.47541C5.82172 6.70945 5.8906 6.92757 6.0087 7.1111L5.11281 7.93784C4.79872 7.53345 4.61141 7.02592 4.61141 6.47541ZM7.76805 6.47541C7.76805 6.89894 7.42352 7.24352 6.99996 7.24352C6.85154 7.24352 6.71291 7.20109 6.5953 7.12789L7.68276 6.12437C7.73715 6.22968 7.76805 6.34898 7.76805 6.47541ZM6.23188 6.47541C6.23188 6.05189 6.57646 5.70733 6.99999 5.70733C7.14841 5.70733 7.28704 5.74977 7.40465 5.82297L6.31716 6.82648C6.26278 6.72118 6.23188 6.60188 6.23188 6.47541ZM11.6858 8.05711C10.5883 8.83761 8.88441 9.76798 6.99999 9.76798C6.05283 9.76798 5.15142 9.53277 4.34984 9.20002L5.08889 8.51804C5.58949 8.98671 6.26174 9.27415 6.99999 9.27415C7.90512 9.27415 8.75871 8.83301 9.28341 8.09408C9.34898 8.00174 9.32726 7.87371 9.23493 7.80814C9.14259 7.74255 9.01459 7.76429 8.94899 7.85663C8.50108 8.48742 7.7725 8.86399 7.00002 8.86399C6.38079 8.86399 5.8159 8.62709 5.39106 8.23925L6.28689 7.41256C6.48503 7.56369 6.73216 7.65371 7.00002 7.65371C7.6497 7.65371 8.17826 7.12515 8.17826 6.47544C8.17826 6.24141 8.10941 6.02331 7.99128 5.83975L8.88717 5.01302C9.20127 5.4174 9.38854 5.92493 9.38854 6.47544C9.38854 6.73521 9.34714 6.99051 9.26552 7.23428C9.22959 7.34169 9.28748 7.4579 9.39491 7.49386C9.50226 7.52987 9.61853 7.4719 9.65449 7.36452C9.75019 7.0787 9.7987 6.77956 9.7987 6.47544C9.7987 5.81774 9.57054 5.21241 9.18937 4.73414L10.0584 3.93223C10.68 4.2267 11.2295 4.56975 11.6776 4.88792C12.5962 5.53996 13.2555 6.19943 13.5165 6.47549C13.2566 6.75052 12.6017 7.40584 11.6858 8.05711Z" fill="black"/>
</svg>
