<svg width="24" height="24" viewBox="0 0 24 24" fill="none" xmlns="http://www.w3.org/2000/svg">
<path d="M23.649 5.67346H19.8823C19.8823 5.47959 19.7252 5.32251 19.5314 5.32251C19.3375 5.32251 19.1804 5.47959 19.1804 5.67346H3.48999C3.29616 5.67346 3.13904 5.83054 3.13904 6.02442V16.646C2.94521 16.646 2.78809 16.803 2.78809 16.9969C2.78809 17.1908 2.94521 17.3479 3.13904 17.3479V21.3665C3.13904 21.5604 3.29616 21.7175 3.48999 21.7175H23.649C23.8429 21.7175 24 21.5604 24 21.3665V6.02437C24 5.83054 23.8429 5.67346 23.649 5.67346ZM23.2981 21.0156H3.84094V6.37537H23.2981V21.0156Z" fill="black"/>
<path d="M21.9792 14.7484C21.7853 14.7484 21.6282 14.9055 21.6282 15.0993V16.9401L16.4523 12.3217C16.3192 12.2029 16.1181 12.2029 15.985 12.3217L12.7905 15.172L10.4378 13.0728C10.3047 12.954 10.1036 12.954 9.97054 13.0728L7.99298 14.8374C7.84832 14.9664 7.83571 15.1883 7.96476 15.3329C8.09381 15.4776 8.31571 15.4902 8.46027 15.3611L10.2042 13.8051L16.2089 19.1628H5.51081V17.993L7.39626 16.3106C7.54091 16.1816 7.55352 15.9598 7.42448 15.8151C7.29543 15.6704 7.07357 15.6579 6.92896 15.7869L5.51081 17.0523V10.8488C5.51081 10.655 5.35368 10.4979 5.15985 10.4979C4.96602 10.4979 4.8089 10.655 4.8089 10.8488V17.8358V19.5139C4.8089 19.7078 4.96602 19.8648 5.15985 19.8648H21.9792C22.1731 19.8648 22.3302 19.7078 22.3302 19.5139V17.7236V15.0993C22.3301 14.9055 22.173 14.7484 21.9792 14.7484ZM21.6282 19.1629H17.2631L13.3176 15.6425L16.2186 13.054L21.6282 17.8808V19.1629Z" fill="black"/>
<path d="M21.9792 7.5262H5.15985C4.96598 7.5262 4.8089 7.68328 4.8089 7.87715V9.44484C4.8089 9.63872 4.96602 9.79579 5.15985 9.79579C5.35368 9.79579 5.51081 9.63872 5.51081 9.44484V8.22811H21.6283V13.6955C21.6283 13.8894 21.7853 14.0465 21.9792 14.0465C22.1731 14.0465 22.3302 13.8894 22.3302 13.6955V7.87715C22.3302 7.68328 22.1731 7.5262 21.9792 7.5262Z" fill="black"/>
<path d="M19.5314 3.69385C19.3375 3.69385 19.1804 3.85093 19.1804 4.0448V4.61293C19.1804 4.8068 19.3375 4.96388 19.5314 4.96388C19.7252 4.96388 19.8823 4.8068 19.8823 4.61293V4.04485C19.8823 3.85097 19.7252 3.69385 19.5314 3.69385Z" fill="black"/>
<path d="M19.5314 2.28244H19.1804C18.9865 2.28244 18.8295 2.43952 18.8295 2.63339C18.8295 2.82727 18.9865 2.98435 19.1804 2.98435C19.1804 3.17822 19.3375 3.3353 19.5314 3.3353C19.7252 3.3353 19.8823 3.17822 19.8823 2.98435V2.63339C19.8823 2.43952 19.7252 2.28244 19.5314 2.28244Z" fill="black"/>
<path d="M10.2751 2.28244H9.60724C9.41341 2.28244 9.25629 2.43952 9.25629 2.63339C9.25629 2.82727 9.41341 2.98435 9.60724 2.98435H10.2751C10.4689 2.98435 10.6261 2.82727 10.6261 2.63339C10.6261 2.43952 10.4689 2.28244 10.2751 2.28244Z" fill="black"/>
<path d="M4.5312 2.28244H3.86328C3.66945 2.28244 3.51233 2.43952 3.51233 2.63339C3.51233 2.82727 3.66945 2.98435 3.86328 2.98435H4.53116C4.72499 2.98435 4.88211 2.82727 4.88211 2.63339C4.88216 2.43952 4.72503 2.28244 4.5312 2.28244Z" fill="black"/>
<path d="M8.3605 2.28244H7.69263C7.4988 2.28244 7.34167 2.43952 7.34167 2.63339C7.34167 2.82727 7.49875 2.98435 7.69263 2.98435H8.3605C8.55433 2.98435 8.71146 2.82727 8.71146 2.63339C8.71146 2.43952 8.55433 2.28244 8.3605 2.28244Z" fill="black"/>
<path d="M6.44582 2.28244H5.77789C5.58407 2.28244 5.42694 2.43952 5.42694 2.63339C5.42694 2.82727 5.58407 2.98435 5.77789 2.98435H6.44582C6.63964 2.98435 6.79677 2.82727 6.79677 2.63339C6.79682 2.43952 6.63964 2.28244 6.44582 2.28244Z" fill="black"/>
<path d="M17.9337 2.28244H17.2658C17.0719 2.28244 16.9149 2.43952 16.9149 2.63339C16.9149 2.82727 17.0719 2.98435 17.2658 2.98435H17.9337C18.1276 2.98435 18.2846 2.82727 18.2846 2.63339C18.2846 2.43952 18.1276 2.28244 17.9337 2.28244Z" fill="black"/>
<path d="M14.1044 2.28244H13.4365C13.2426 2.28244 13.0856 2.43952 13.0856 2.63339C13.0856 2.82727 13.2426 2.98435 13.4365 2.98435H14.1044C14.2982 2.98435 14.4553 2.82727 14.4553 2.63339C14.4553 2.43952 14.2982 2.28244 14.1044 2.28244Z" fill="black"/>
<path d="M16.019 2.28244H15.3512C15.1573 2.28244 15.0002 2.43952 15.0002 2.63339C15.0002 2.82727 15.1573 2.98435 15.3512 2.98435H16.019C16.2129 2.98435 16.37 2.82727 16.37 2.63339C16.37 2.43952 16.2129 2.28244 16.019 2.28244Z" fill="black"/>
<path d="M12.1897 2.28244H11.5219C11.328 2.28244 11.1709 2.43952 11.1709 2.63339C11.1709 2.82727 11.328 2.98435 11.5219 2.98435H12.1897C12.3836 2.98435 12.5406 2.82727 12.5406 2.63339C12.5407 2.43952 12.3836 2.28244 12.1897 2.28244Z" fill="black"/>
<path d="M2.61653 2.28244H1.94861C1.75478 2.28244 1.59766 2.43952 1.59766 2.63339C1.59766 2.82727 1.75478 2.98435 1.94861 2.98435H2.61653C2.81036 2.98435 2.96748 2.82727 2.96748 2.63339C2.96748 2.43952 2.81036 2.28244 2.61653 2.28244Z" fill="black"/>
<path d="M0.701906 2.28244H0.350953C0.157125 2.28244 0 2.43952 0 2.63339V2.98435C0 3.17822 0.157125 3.3353 0.350953 3.3353C0.544781 3.3353 0.701906 3.17822 0.701906 2.98435C0.895734 2.98435 1.05286 2.82727 1.05286 2.63339C1.05286 2.43952 0.895734 2.28244 0.701906 2.28244Z" fill="black"/>
<path d="M0.350953 14.241C0.157125 14.241 0 14.3981 0 14.592V15.3085C0 15.5024 0.157125 15.6594 0.350953 15.6594C0.544781 15.6594 0.701906 15.5024 0.701906 15.3085V14.592C0.701906 14.3981 0.544781 14.241 0.350953 14.241Z" fill="black"/>
<path d="M0.350953 3.97093C0.157125 3.97093 0 4.12801 0 4.32189V5.03846C0 5.23229 0.157125 5.38937 0.350953 5.38937C0.544781 5.38937 0.701906 5.23229 0.701906 5.03842V4.32189C0.701906 4.12801 0.544781 3.97093 0.350953 3.97093Z" fill="black"/>
<path d="M0.350953 12.1871C0.157125 12.1871 0 12.3442 0 12.538V13.2545C0 13.4483 0.157125 13.6055 0.350953 13.6055C0.544781 13.6055 0.701906 13.4484 0.701906 13.2545V12.538C0.701906 12.3442 0.544781 12.1871 0.350953 12.1871Z" fill="black"/>
<path d="M0.350953 8.07895C0.157125 8.07895 0 8.23603 0 8.4299V9.14643C0 9.34026 0.157125 9.49739 0.350953 9.49739C0.544781 9.49739 0.701906 9.34031 0.701906 9.14643V8.4299C0.701906 8.23607 0.544781 8.07895 0.350953 8.07895Z" fill="black"/>
<path d="M0.350953 6.02495C0.157125 6.02495 0 6.18203 0 6.3759V7.09243C0 7.28631 0.157125 7.44339 0.350953 7.44339C0.544781 7.44339 0.701906 7.28631 0.701906 7.09243V6.3759C0.701906 6.18203 0.544781 6.02495 0.350953 6.02495Z" fill="black"/>
<path d="M0.350953 10.133C0.157125 10.133 0 10.2901 0 10.484V11.2004C0 11.3943 0.157125 11.5514 0.350953 11.5514C0.544781 11.5514 0.701906 11.3943 0.701906 11.2004V10.484C0.701906 10.2901 0.544781 10.133 0.350953 10.133Z" fill="black"/>
<path d="M0.701906 16.646C0.701906 16.4521 0.544781 16.295 0.350953 16.295C0.157125 16.295 0 16.4521 0 16.646V16.9969C0 17.1908 0.157125 17.3479 0.350953 17.3479H0.701906C0.895734 17.3479 1.05286 17.1908 1.05286 16.9969C1.05286 16.8031 0.895734 16.646 0.701906 16.646Z" fill="black"/>
<path d="M2.1779 16.646H1.66303C1.4692 16.646 1.31207 16.803 1.31207 16.9969C1.31207 17.1908 1.4692 17.3479 1.66303 17.3479H2.1779C2.37173 17.3479 2.52885 17.1908 2.52885 16.9969C2.52885 16.8031 2.37173 16.646 2.1779 16.646Z" fill="black"/>
<path d="M12.835 8.97491C11.908 8.97491 11.1537 9.72909 11.1537 10.6561C11.1537 11.5832 11.908 12.3374 12.835 12.3374C13.7621 12.3374 14.5162 11.5832 14.5162 10.6561C14.5162 9.72909 13.7621 8.97491 12.835 8.97491ZM12.835 11.6355C12.295 11.6355 11.8557 11.1961 11.8557 10.6561C11.8557 10.1161 12.295 9.67682 12.835 9.67682C13.375 9.67682 13.8143 10.1161 13.8143 10.6561C13.8143 11.1961 13.375 11.6355 12.835 11.6355Z" fill="black"/>
</svg>
