<svg xmlns="http://www.w3.org/2000/svg" viewBox="0 0 520 606" width="520" height="606">
	<style>
		tspan { white-space:pre }
		.shp0 { fill: #d1d1d1 } 
	</style>
	<g id="Layer">
		<g id="Layer">
			<path id="Shape 1" class="shp0" d="M10 10L514 10L514 37L10 37L10 10Z" />
			<path id="Shape 1 copy" class="shp0" d="M11 50L344 50L344 262L11 262L11 50Z" />
			<path id="Shape 1 copy 5" class="shp0" d="M12 269L508 269L508 374L12 374L12 269Z" />
			<path id="Shape 1 copy 6" class="shp0" d="M12 380L508 380L508 485L12 485L12 380Z" />
			<path id="Shape 1 copy 8" class="shp0" d="M12 492L508 492L508 597L12 597L12 492Z" />
			<path id="Shape 1 copy 4" class="shp0" d="M350.47 50L508 50L508 153.82L350.47 153.82L350.47 50Z" />
			<path id="Shape 1 copy 7" class="shp0" d="M349.48 160.18L507.01 160.18L507.01 264L349.48 264L349.48 160.18Z" />
		</g>
	</g>
	<g id="Layer">
	</g>
	<g id="Layer">
	</g>
	<g id="Layer">
	</g>
	<g id="Layer">
	</g>
	<g id="Layer">
	</g>
	<g id="Layer">
	</g>
	<g id="Layer">
	</g>
	<g id="Layer">
	</g>
	<g id="Layer">
	</g>
	<g id="Layer">
	</g>
	<g id="Layer">
	</g>
	<g id="Layer">
	</g>
	<g id="Layer">
	</g>
	<g id="Layer">
	</g>
	<g id="Layer">
	</g>
</svg>