<svg xmlns="http://www.w3.org/2000/svg" viewBox="0 0 520 671" width="520" height="671">
	<style>
		tspan { white-space:pre }
		.shp0 { fill: #d1d1d1 } 
		.shp1 { fill: none;stroke: #ffffff;stroke-width: 4.4 } 
	</style>
	<g id="Layer">
		<g id="Layer">
			<path id="Shape 1" class="shp0" d="M10 10L514 10L514 37L10 37L10 10Z" />
			<path id="Shape 1 copy" class="shp0" d="M10 50L509 50L509 262L10 262L10 50Z" />
			<path id="Shape 1 copy 5" class="shp0" d="M12 439L508 439L508 544L12 544L12 439Z" />
			<path id="Shape 1 copy 6" class="shp0" d="M12 552L508 552L508 657L12 657L12 552Z" />
			<path id="Shape 1 copy 2" class="shp0" d="M12 271L171.52 271L171.52 432L12 432L12 271Z" />
			<path id="Shape 1 copy 3" class="shp0" d="M182.21 271L341.73 271L341.73 432L182.21 432L182.21 271Z" />
			<path id="Shape 1 copy 4" class="shp0" d="M349.48 271L509 271L509 432L349.48 432L349.48 271Z" />
		</g>
		<path id="Shape 2" class="shp1" d="M119 131L396 131L396 172L119 172L119 131Z" />
	</g>
	<g id="Layer">
	</g>
	<g id="Layer">
	</g>
	<g id="Layer">
	</g>
	<g id="Layer">
	</g>
	<g id="Layer">
	</g>
	<g id="Layer">
	</g>
	<g id="Layer">
	</g>
	<g id="Layer">
	</g>
	<g id="Layer">
	</g>
	<g id="Layer">
	</g>
	<g id="Layer">
	</g>
	<g id="Layer">
	</g>
	<g id="Layer">
	</g>
	<g id="Layer">
	</g>
	<g id="Layer">
	</g>
</svg>