<svg width="20" height="20" viewBox="0 0 20 20" fill="none" xmlns="http://www.w3.org/2000/svg">
<path d="M19.7064 10.6458H7.49508C7.33297 10.6458 7.20154 10.7772 7.20154 10.9393C7.20154 11.1015 7.33297 11.2329 7.49508 11.2329H19.7064C19.8685 11.2329 20 11.1015 20 10.9393C20 10.7772 19.8685 10.6458 19.7064 10.6458Z" fill="black"/>
<path d="M19.7064 8.76712H7.49508C7.33297 8.76712 7.20154 8.89855 7.20154 9.06066C7.20154 9.22278 7.33297 9.35421 7.49508 9.35421H19.7064C19.8685 9.35421 20 9.22278 20 9.06066C20 8.89855 19.8685 8.76712 19.7064 8.76712Z" fill="black"/>
<path d="M4.6771 7.20157H0.919765C0.412603 7.20157 0 7.61417 0 8.12133V11.8787C0 12.3858 0.412603 12.7984 0.919765 12.7984H4.6771C5.18427 12.7984 5.59687 12.3858 5.59687 11.8787V8.12133C5.59687 7.61417 5.18427 7.20157 4.6771 7.20157ZM5.00978 11.8787C5.00978 12.0621 4.86055 12.2114 4.6771 12.2114H0.919765C0.736321 12.2114 0.587084 12.0621 0.587084 11.8787V8.12133C0.587084 7.93789 0.736321 7.78865 0.919765 7.78865H4.6771C4.86055 7.78865 5.00978 7.93789 5.00978 8.12133V11.8787Z" fill="black"/>
<path d="M19.7064 3.75734H7.49508C7.33297 3.75734 7.20154 3.88877 7.20154 4.05088C7.20154 4.21299 7.33297 4.34442 7.49508 4.34442H19.7064C19.8685 4.34442 20 4.21299 20 4.05088C20 3.88877 19.8685 3.75734 19.7064 3.75734Z" fill="black"/>
<path d="M7.49508 2.46576H19.7064C19.8685 2.46576 20 2.33433 20 2.17222C20 2.01011 19.8685 1.87868 19.7064 1.87868H7.49508C7.33297 1.87868 7.20154 2.01011 7.20154 2.17222C7.20154 2.33433 7.33297 2.46576 7.49508 2.46576Z" fill="black"/>
<path d="M4.6771 0.31311H0.919765C0.412603 0.31311 0 0.725713 0 1.23288V4.99021C0 5.49738 0.412603 5.90998 0.919765 5.90998H4.6771C5.18427 5.90998 5.59687 5.49738 5.59687 4.99021V1.23288C5.59687 0.725713 5.18427 0.31311 4.6771 0.31311ZM5.00978 4.99021C5.00978 5.17366 4.86055 5.3229 4.6771 5.3229H0.919765C0.736321 5.3229 0.587084 5.17366 0.587084 4.99021V1.23288C0.587084 1.04943 0.736321 0.900195 0.919765 0.900195H4.6771C4.86055 0.900195 5.00978 1.04943 5.00978 1.23288V4.99021Z" fill="black"/>
<path d="M19.7064 17.5342H7.49508C7.33297 17.5342 7.20154 17.6657 7.20154 17.8278C7.20154 17.9899 7.33297 18.1213 7.49508 18.1213H19.7064C19.8685 18.1213 20 17.9899 20 17.8278C20 17.6657 19.8685 17.5342 19.7064 17.5342Z" fill="black"/>
<path d="M19.7064 15.6556H7.49508C7.33297 15.6556 7.20154 15.787 7.20154 15.9491C7.20154 16.1112 7.33297 16.2427 7.49508 16.2427H19.7064C19.8685 16.2427 20 16.1112 20 15.9491C20 15.787 19.8685 15.6556 19.7064 15.6556Z" fill="black"/>
<path d="M4.6771 14.09H0.919765C0.412603 14.09 0 14.5026 0 15.0098V18.7671C0 19.2743 0.412603 19.6869 0.919765 19.6869H4.6771C5.18427 19.6869 5.59687 19.2743 5.59687 18.7671V15.0098C5.59687 14.5026 5.18427 14.09 4.6771 14.09ZM5.00978 18.7671C5.00978 18.9506 4.86055 19.0998 4.6771 19.0998H0.919765C0.736321 19.0998 0.587084 18.9506 0.587084 18.7671V15.0098C0.587084 14.8263 0.736321 14.6771 0.919765 14.6771H4.6771C4.86055 14.6771 5.00978 14.8263 5.00978 15.0098V18.7671Z" fill="black"/>
</svg>
