<svg width="24" height="24" viewBox="0 0 24 24" fill="none" xmlns="http://www.w3.org/2000/svg">
<path d="M23.8202 5.38142C23.6508 5.28645 23.4366 5.34683 23.3417 5.51623C23.141 5.8744 22.7615 6.09687 22.3514 6.09687H18.5095L19.958 4.64844C20.166 4.44041 20.2806 4.16376 20.2806 3.86953C20.2806 3.57529 20.166 3.29864 19.958 3.09061C19.9566 3.0892 19.9551 3.0878 19.9537 3.08639C19.4679 2.61699 18.7843 2.71805 18.404 3.08686C18.4027 3.08812 18.4014 3.08939 18.4001 3.09066L15.8884 5.60239V5.1561C15.8884 4.54869 15.3943 4.05454 14.7868 4.05454C14.1794 4.05454 13.6853 4.54869 13.6853 5.1561V8.25855C13.6805 8.54504 13.7902 8.81687 13.9944 9.02443C14.2064 9.23996 14.4941 9.36334 14.7829 9.36329H14.7868H17.8925C18.4999 9.36329 18.994 8.86914 18.994 8.26173C18.994 7.65433 18.4999 7.16018 17.8925 7.16018H17.4462L17.8064 6.79999H19.9345V18.8876C19.9345 18.9579 19.8775 19.0151 19.8075 19.0151H18.2473C18.5377 18.7763 18.7743 18.4687 18.9306 18.1096C19.0081 17.9316 18.9266 17.7244 18.7486 17.6469C18.5705 17.5694 18.3634 17.6508 18.2859 17.8289C18.012 18.458 17.3918 18.8645 16.7059 18.8645C15.7561 18.8645 14.9835 18.0918 14.9835 17.1421C14.9835 16.1924 15.7561 15.4198 16.7059 15.4198C17.3781 15.4198 17.9933 15.815 18.2731 16.4266C18.3538 16.6032 18.5624 16.6807 18.739 16.6001C18.9156 16.5193 18.9933 16.3107 18.9125 16.1342C18.5186 15.2731 17.6525 14.7167 16.7059 14.7167C15.3685 14.7167 14.2804 15.8047 14.2804 17.1421C14.2804 17.8956 14.6258 18.5699 15.1665 19.0151H4.19302C4.12271 19.0151 4.06552 18.9579 4.06552 18.8876V6.79999H12.3922C12.5863 6.79999 12.7437 6.64259 12.7437 6.44843C12.7437 6.25428 12.5863 6.09687 12.3922 6.09687H1.64861C1.23846 6.09687 0.859009 5.87436 0.658291 5.51623C0.563417 5.34688 0.349153 5.2865 0.179747 5.38142C0.0103888 5.47634 -0.0499858 5.69061 0.0449355 5.85997C0.369871 6.43981 0.984399 6.79999 1.64861 6.79999H3.36235V18.8876C3.36235 19.3456 3.73496 19.7182 4.19297 19.7182H19.8074C20.2651 19.7182 20.6376 19.3456 20.6376 18.8876V6.79999H21.4565V19.3901C21.4565 20.0163 20.9469 20.5258 20.3207 20.5258H3.67927C3.05298 20.5258 2.5435 20.0163 2.5435 19.3901V8.09036C2.5435 7.89621 2.38609 7.7388 2.19194 7.7388C1.99778 7.7388 1.84038 7.89621 1.84038 8.09036V19.39C1.84038 20.404 2.66533 21.2289 3.67927 21.2289H20.3207C21.3347 21.2289 22.1596 20.404 22.1596 19.39V6.79995H22.3514C23.0156 6.79995 23.6301 6.43976 23.955 5.85992C24.05 5.69056 23.9896 5.47634 23.8202 5.38142ZM17.8924 7.86325C18.1121 7.86325 18.2909 8.04199 18.2909 8.26169C18.2909 8.48139 18.1121 8.66012 17.8924 8.66012H14.7854C14.6248 8.64161 14.4314 8.56834 14.3884 8.26169V5.15605C14.3884 4.93635 14.5671 4.75761 14.7868 4.75761C15.0065 4.75761 15.1852 4.93635 15.1852 5.15605V6.44567C15.1871 6.56342 15.2362 6.68618 15.4023 6.77585C15.4747 6.80927 15.6489 6.81087 15.7854 6.69963L18.895 3.59001C19.0102 3.47972 19.2684 3.40448 19.4628 3.58982C19.5367 3.66482 19.5774 3.76401 19.5774 3.86943C19.5774 3.97588 19.536 4.07591 19.4607 4.15115L17.4139 6.19789C17.4126 6.1992 17.4113 6.20051 17.41 6.20182L16.3488 7.26302C16.2483 7.36357 16.2182 7.51479 16.2726 7.64613C16.327 7.77752 16.4552 7.86316 16.5974 7.86316H17.8924V7.86325Z" fill="black"/>
<path d="M18.7274 11.458C18.7274 11.2639 18.57 11.1064 18.3759 11.1064H5.62408C5.42993 11.1064 5.27252 11.2639 5.27252 11.458C5.27252 11.6522 5.42993 11.8096 5.62408 11.8096H18.3759C18.57 11.8096 18.7274 11.6522 18.7274 11.458Z" fill="black"/>
<path d="M10.8216 10.1074C11.0158 10.1074 11.1732 9.95002 11.1732 9.75586V8.2328C11.1732 8.03864 11.0158 7.88123 10.8216 7.88123H5.47595C5.2818 7.88123 5.12439 8.03864 5.12439 8.2328V9.75586C5.12439 9.95002 5.2818 10.1074 5.47595 10.1074H10.8216ZM5.82751 8.58436H10.4701V9.4043H5.82751V8.58436Z" fill="black"/>
<path d="M8.2976 12.7788H5.62408C5.42993 12.7788 5.27252 12.9363 5.27252 13.1304C5.27252 13.3246 5.42993 13.482 5.62408 13.482H8.2976C8.49176 13.482 8.64916 13.3246 8.64916 13.1304C8.64916 12.9363 8.49176 12.7788 8.2976 12.7788Z" fill="black"/>
<path d="M5.66132 14.9554C5.85235 14.9554 6.00721 14.8006 6.00721 14.6095C6.00721 14.4185 5.85235 14.2637 5.66132 14.2637C5.47029 14.2637 5.31543 14.4185 5.31543 14.6095C5.31543 14.8006 5.47029 14.9554 5.66132 14.9554Z" fill="black"/>
<path d="M8.29754 14.258H6.96075C6.7666 14.258 6.60919 14.4154 6.60919 14.6095C6.60919 14.8037 6.7666 14.9611 6.96075 14.9611H8.29754C8.49169 14.9611 8.6491 14.8037 8.6491 14.6095C8.6491 14.4154 8.49169 14.258 8.29754 14.258Z" fill="black"/>
<path d="M5.66132 16.2641C5.85235 16.2641 6.00721 16.1092 6.00721 15.9182C6.00721 15.7272 5.85235 15.5723 5.66132 15.5723C5.47029 15.5723 5.31543 15.7272 5.31543 15.9182C5.31543 16.1092 5.47029 16.2641 5.66132 16.2641Z" fill="black"/>
<path d="M8.29754 15.5666H6.96075C6.7666 15.5666 6.60919 15.724 6.60919 15.9182C6.60919 16.1123 6.7666 16.2698 6.96075 16.2698H8.29754C8.49169 16.2698 8.6491 16.1123 8.6491 15.9182C8.6491 15.724 8.49169 15.5666 8.29754 15.5666Z" fill="black"/>
<path d="M15.2189 13.1304C15.2189 12.9363 15.0615 12.7788 14.8673 12.7788H10.4958C10.3017 12.7788 10.1443 12.9363 10.1443 13.1304C10.1443 13.3246 10.3017 13.482 10.4958 13.482H14.8673C15.0615 13.482 15.2189 13.3246 15.2189 13.1304Z" fill="black"/>
<path d="M10.8579 14.7454C10.931 14.5688 10.8472 14.3664 10.6707 14.2933C10.4942 14.2201 10.2918 14.3039 10.2187 14.4804C10.1455 14.6569 10.2293 14.8593 10.4058 14.9325C10.5823 15.0056 10.7847 14.9219 10.8579 14.7454Z" fill="black"/>
<path d="M13.1694 14.258H11.8326C11.6384 14.258 11.481 14.4154 11.481 14.6095C11.481 14.8037 11.6384 14.9611 11.8326 14.9611H13.1694C13.3635 14.9611 13.5209 14.8037 13.5209 14.6095C13.5209 14.4154 13.3635 14.258 13.1694 14.258Z" fill="black"/>
<path d="M10.858 16.0545C10.9311 15.8779 10.8474 15.6755 10.6709 15.6024C10.4943 15.5292 10.2919 15.613 10.2188 15.7895C10.1456 15.966 10.2294 16.1684 10.4059 16.2416C10.5824 16.3147 10.7848 16.231 10.858 16.0545Z" fill="black"/>
<path d="M13.1694 15.5666H11.8326C11.6384 15.5666 11.481 15.724 11.481 15.9182C11.481 16.1123 11.6384 16.2698 11.8326 16.2698H13.1694C13.3635 16.2698 13.5209 16.1123 13.5209 15.9182C13.5209 15.724 13.3635 15.5666 13.1694 15.5666Z" fill="black"/>
<path d="M5.66132 17.6755C5.85235 17.6755 6.00721 17.5206 6.00721 17.3296C6.00721 17.1386 5.85235 16.9837 5.66132 16.9837C5.47029 16.9837 5.31543 17.1386 5.31543 17.3296C5.31543 17.5206 5.47029 17.6755 5.66132 17.6755Z" fill="black"/>
<path d="M8.29754 16.978H6.96075C6.7666 16.978 6.60919 17.1354 6.60919 17.3296C6.60919 17.5237 6.7666 17.6812 6.96075 17.6812H8.29754C8.49169 17.6812 8.6491 17.5237 8.6491 17.3296C8.6491 17.1354 8.49169 16.978 8.29754 16.978Z" fill="black"/>
<path d="M16.7997 16.5553C16.9173 16.5553 17.0307 16.5899 17.1275 16.6553C17.2884 16.7641 17.507 16.7217 17.6157 16.5608C17.7244 16.3999 17.682 16.1814 17.5212 16.0727C17.3076 15.9285 17.0581 15.8522 16.7997 15.8522C16.0884 15.8522 15.5098 16.4309 15.5098 17.1421C15.5098 17.8534 16.0884 18.432 16.7997 18.432C17.0873 18.432 17.3462 18.3368 17.5484 18.1568C17.588 18.1216 17.6256 18.0828 17.6602 18.0415C17.785 17.8928 17.7656 17.671 17.6168 17.5462C17.4681 17.4215 17.2463 17.4409 17.1216 17.5897C17.1088 17.6048 17.0952 17.619 17.0809 17.6317C17.0074 17.6971 16.9155 17.729 16.7998 17.729C16.4762 17.729 16.2129 17.4657 16.2129 17.1421C16.2128 16.8185 16.4761 16.5553 16.7997 16.5553Z" fill="black"/>
</svg>
