<svg id="Capa_1" enable-background="new 0 0 512 512" height="512" viewBox="0 0 512 512" width="512" xmlns="http://www.w3.org/2000/svg"><g><g><path d="m172.442 259c-4.142 0-7.5 3.358-7.5 7.5v12c0 4.142 3.358 7.5 7.5 7.5s7.5-3.358 7.5-7.5v-12c0-4.142-3.358-7.5-7.5-7.5z"/><path d="m297.339 259c-4.142 0-7.5 3.358-7.5 7.5v12c0 4.142 3.358 7.5 7.5 7.5s7.5-3.358 7.5-7.5v-12c0-4.142-3.358-7.5-7.5-7.5z"/><path d="m256.282 272.489c-3.124-2.721-7.86-2.396-10.582.727-5.725 6.569-15.898 6.567-21.62 0-2.721-3.123-7.459-3.447-10.582-.727-3.123 2.722-3.448 7.459-.727 10.582 11.704 13.43 32.544 13.418 44.237 0 2.722-3.123 2.397-7.861-.726-10.582z"/><path d="m439.021 203.437c11.689-14.263 16.506-33.042 12.93-51.384-1.659-8.512-8.231-15.084-16.742-16.743-20.38-3.971-41.301 2.41-55.965 17.073-.044.044-.086.09-.13.134l-8.246-33.499c-.99-4.022-5.051-6.477-9.075-5.49-4.021.99-6.479 5.053-5.489 9.076l5.912 24.021c-32.632-28.056-73.428-52.645-115.001-69.286-37.719-15.098-74.9-23.284-108.946-24.109 8.716-10.314 20.19-17.964 33.297-22.033l41.869-13c7.211-2.238 14.341-3.216 21.487-3.197 7.267-.012 14.36 1.004 21.422 3.197l41.87 13c23.769 7.38 42.239 27.012 48.201 51.235l2.702 10.974c.986 4.006 5.033 6.483 9.075 5.49 4.021-.99 6.479-5.053 5.489-9.075l-2.701-10.974c-7.211-29.299-29.558-53.046-58.318-61.976l-41.87-13c-8.149-2.528-13.038-3.871-25.869-3.871-8.773-.023-17.413 1.227-25.935 3.873l-41.869 13c-19.856 6.165-36.615 19.112-47.6 36.674-36.025 2.14-68.027 17.671-72.971 52.556-3.878 27.364 12.485 55.075 39.406 67.986-1.321 10.504-1.533 21.596-.287 33.669-22.594 2.137-39.486 21.092-39.486 43.372 0 23.425 18.583 42.839 42.307 43.54 10.905 36.318 35.924 68.714 69.728 88.497-.92 6.272-1.061 12.499-.482 18.581-4.427 3.332-8.662 6.948-12.617 10.809-2.964 2.893-3.021 7.642-.128 10.606s7.641 3.022 10.606.128c1.783-1.741 3.645-3.411 5.545-5.037 7.667 23.603 26.537 42.924 51.957 50.367l10.57 9.182c6.398 5.559 16.05 5.56 22.449 0l10.57-9.183c25.429-7.446 44.303-26.777 51.965-50.39 11.698 10.011 21.242 22.272 28.07 36.069-7.36 6.17-15.349 12.119-23.632 17.625v-4.776c0-4.142-3.358-7.5-7.5-7.5s-7.5 3.358-7.5 7.5v29.852h-126.41c0-26.129 0 7.333 0-29.852 0-4.142-3.358-7.5-7.5-7.5s-7.5 3.358-7.5 7.5v4.767c-8.275-5.502-16.258-11.448-23.616-17.615 1.535-3.101 3.199-6.144 5.002-9.079 2.168-3.529 1.064-8.148-2.465-10.316-3.531-2.168-8.149-1.064-10.316 2.465-12.042 19.602-18.965 42.564-18.965 67.131 0 4.142 3.358 7.5 7.5 7.5h191.771.016 50.361c4.143 0 7.5-3.358 7.5-7.5 0-41.273-19.684-78.901-51.415-102.774.577-6.088.434-12.321-.49-18.599 32.39-18.846 58.137-50.01 69.582-88.454 8.309-.218 16.392-2.795 23.273-7.44 8.86 3.766 18.441 5.701 28.065 5.701 4.568 0 9.146-.435 13.658-1.314 9.434-1.838 16.717-9.122 18.555-18.555 5.007-25.696-4.323-52.652-25.674-69.629zm-311.94 265.361c9.244 7.471 19.284 14.583 29.596 20.939v7.263h-35.117c.629-9.643 2.481-19.076 5.521-28.202zm186.007 28.202v-7.255c10.321-6.36 20.366-13.475 29.612-20.947 3.04 9.125 4.893 18.558 5.521 28.202zm119.251-346.967c2.485.484 4.405 2.404 4.89 4.89 2.833 14.533-1.269 29.426-10.996 40.402-20.487-10.133-43.25-8.408-52.048-3.608-2.58 1.175-4.292 3.694-4.413 6.542-.104 2.318-.266 4.653-.487 6.99-43.438-14.314-88.935-21.566-135.38-21.566-45.911 0-91.825 7.409-133.426 21.48-.988-10.306-.865-20.338.603-30.856 41.375-22.006 85.191-32.466 133.733-31.986.05.001.1.001.149 0 49.9-.493 94.701 10.552 136.999 33.743.047.026.12.054.164.077 3.539 1.831 7.958.579 9.966-2.966l.005.003c9.798-17.336 29.788-27.132 50.241-23.145zm-370.939-41.826c3.121-22.026 23.354-36.734 54.124-39.344 74.099-6.284 158.199 29.5 217.548 73.658-30.921-10.529-63.381-15.537-98.179-15.201-51.236-.502-97.418 10.575-141.106 33.871-21.916-9.836-35.413-31.628-32.387-52.984zm-.219 142.922c0-14.023 10.198-25.87 23.677-28.167-3.587 18.938-3.565 37.968-.12 56.311-13.469-2.353-23.557-14.216-23.557-28.144zm111.324 139.398c4.872 2.188 9.859 4.113 14.943 5.771.69 15.538 9.055 29.842 22.109 38.125l-4.884 8.486c-.914 1.588-1.532 3.276-1.896 4.996-20.044-11.956-31.725-34.138-30.272-57.378zm77.063 32.725c-2.004-.81-4.169-1.251-6.392-1.251h-16.571c-2.222 0-4.387.441-6.391 1.251-8.982-4.574-15.29-13.084-17.206-22.791 10.287 2.17 20.877 3.296 31.652 3.295 10.662 0 21.298-1.066 32.127-3.369-1.898 9.737-8.214 18.279-17.219 22.865zm-13.29 43.228c-.805.698-1.971.699-2.775 0l-15.375-13.357c-.77-.669-.966-1.845-.454-2.733l7.089-12.317c.307-.534.996-1.072 1.841-1.072h16.571c.59 0 1.418.336 1.842 1.073l7.089 12.316c.511.889.316 2.064-.455 2.733zm30.726-18.576c-.364-1.72-.982-3.408-1.896-4.996l-4.884-8.485c13.078-8.298 21.452-22.64 22.114-38.213 5.085-1.66 10.071-3.579 14.935-5.758 1.491 23.4-10.312 45.548-30.269 57.452zm-32.311-59.15c-87.186-.003-153.543-81.265-134.122-167.725 41.293-14.614 87.29-22.347 133.333-22.347 46.501 0 91.996 7.547 135.31 22.392 18.915 86.007-45.986 167.68-134.521 167.68zm150.196-165.799c13.579 2.296 23.711 14.226 23.711 28.175 0 14.146-10.366 25.93-23.737 28.177 3.453-18.411 3.52-37.491.026-56.352zm65.081 47.242c-.664 3.407-3.294 6.037-6.701 6.701-9.049 1.764-18.412 1.258-27.158-1.366 4.827-7.143 7.49-15.627 7.49-24.403 0-22.265-16.881-41.24-39.49-43.377.131-1.293.24-2.586.34-3.878 39.201-7.143 73.111 27.37 65.519 66.323z"/></g></g></svg>