<svg xmlns="http://www.w3.org/2000/svg" viewBox="0 0 1220 653" width="1220" height="653">
	<style>
		tspan { white-space:pre }
		.shp0 { fill: #000000 } 
	</style>
	<path id="Shape 1" class="shp0" d="M333 382.03L378.68 382.03L378.68 601L333 601L333 382.03Z" />
	<path id="Shape 1 copy" class="shp0" d="M399.86 382.03L445.55 382.03L445.55 601L399.86 601L399.86 382.03Z" />
	<path id="Shape 1 copy 2" class="shp0" d="M462.73 95.32L508.41 95.32L508.41 601L462.73 601L462.73 95.32Z" />
	<path id="Shape 1 copy 3" class="shp0" d="M529.01 26L574.7 26L574.7 601L529.01 601L529.01 26Z" />
	<path id="Shape 1 copy 4" class="shp0" d="M594.3 296.96L639.99 296.96L639.99 601L594.3 601L594.3 296.96Z" />
	<path id="Shape 1 copy 5" class="shp0" d="M658.01 330.04L703.7 330.04L703.7 601L658.01 601L658.01 330.04Z" />
	<path id="Shape 1 copy 6" class="shp0" d="M722.88 251.27L768.56 251.27L768.56 601L722.88 601L722.88 251.27Z" />
	<path id="Shape 1 copy 7" class="shp0" d="M786.74 490.73L832.42 490.73L832.42 601L786.74 601L786.74 490.73Z" />
	<path id="Shape 1 copy 8" class="shp0" d="M851.03 337.92L896.71 337.92L896.71 601L851.03 601L851.03 337.92Z" />
	<path id="Shape 1 copy 9" class="shp0" d="M915.32 382.03L961 382.03L961 601L915.32 601L915.32 382.03Z" />
</svg>