<svg xmlns="http://www.w3.org/2000/svg" viewBox="0 0 1220 653" width="1220" height="653">
	<style>
		tspan { white-space:pre }
		.shp0 { fill: #000000 } 
	</style>
	<path id="Shape 1" class="shp0" d="M309 382.03L354.68 382.03L354.68 601L309 601L309 382.03Z" />
	<path id="Shape 1 copy" class="shp0" d="M385.86 380.03L431.55 380.03L431.55 599L385.86 599L385.86 380.03Z" />
	<path id="Shape 1 copy 2" class="shp0" d="M462.73 95.32L508.41 95.32L508.41 601L462.73 601L462.73 95.32Z" />
	<path id="Shape 1 copy 3" class="shp0" d="M537.01 26L582.7 26L582.7 601L537.01 601L537.01 26Z" />
	<path id="Shape 1 copy 4" class="shp0" d="M610.3 338L655.99 338L655.99 601L610.3 601L610.3 338Z" />
	<path id="Shape 1 copy 5" class="shp0" d="M684.01 414L729.7 414L729.7 598L684.01 598L684.01 414Z" />
	<path id="Shape 1 copy 6" class="shp0" d="M756.88 393L802.56 393L802.56 599L756.88 599L756.88 393Z" />
	<path id="Shape 1 copy 7" class="shp0" d="M826.74 486.73L872.42 486.73L872.42 597L826.74 597L826.74 486.73Z" />
	<path id="Shape 1 copy 8" class="shp0" d="M897.03 435L942.71 435L942.71 599L897.03 599L897.03 435Z" />
	<path id="Shape 1 copy 9" class="shp0" d="M969.32 455L1015 455L1015 595L969.32 595L969.32 455Z" />
</svg>