<svg width="20" height="20" viewBox="0 0 20 20" fill="none" xmlns="http://www.w3.org/2000/svg">
<g clip-path="url(#clip0)">
<path d="M19.4188 18.2486C19.3051 17.5256 19.0725 16.5802 18.7636 15.5866C18.7149 15.43 18.5484 15.3425 18.3917 15.3911C18.2351 15.4398 18.1476 15.6063 18.1963 15.763C18.8314 17.8061 18.9779 19.0975 18.882 19.3794C18.8043 19.4014 18.505 19.4519 17.644 19.2993C16.9104 19.1693 15.9722 18.926 15.0024 18.6143C14.9477 18.5967 14.8931 18.5788 14.8385 18.5609L15.8738 17.5256C15.9898 17.4096 15.9898 17.2215 15.8738 17.1056C15.7577 16.9896 15.5697 16.9896 15.4537 17.1056L14.2115 18.3477C12.1509 17.6219 10.22 16.6915 8.82238 15.7437C6.43735 14.1262 6.0443 12.8014 6.13452 11.975C6.20015 11.374 6.39695 10.7494 6.7195 10.1185C7.35189 8.88161 8.38133 7.85213 9.61823 7.21978C10.2491 6.89723 10.8737 6.70043 11.4747 6.6348C12.3327 6.54117 13.1504 7.00951 13.8505 7.65616L12.8056 8.70108C12.6896 8.81709 12.6896 9.00518 12.8056 9.12115C12.8636 9.17913 12.9396 9.20816 13.0156 9.20816C13.0916 9.20816 13.1677 9.17917 13.2257 9.12115L14.2695 8.07733C14.5581 8.39101 14.8204 8.72421 15.0488 9.0434C15.7349 10.0019 16.4119 11.2333 17.022 12.6205L15.8757 13.7668C15.7597 13.8828 15.7597 14.0709 15.8757 14.1868C15.9338 14.2449 16.0098 14.2738 16.0858 14.2738C16.1618 14.2738 16.2379 14.2449 16.2959 14.1868L17.2732 13.2096C17.4639 13.6712 17.6468 14.1473 17.82 14.6342C17.8749 14.7888 18.0449 14.8695 18.1993 14.8145C18.3539 14.7596 18.4346 14.5897 18.3797 14.4352C17.5782 12.181 16.5668 10.1434 15.532 8.6976C14.1648 6.7876 12.7783 5.89476 11.4102 6.04423C11.291 6.05726 11.1711 6.07501 11.0506 6.09703C10.6379 5.54512 10.4621 4.67985 10.277 3.76744C10.0367 2.58346 9.78837 1.35916 8.98191 0.552744C8.32842 -0.100755 7.37914 -0.18068 6.50452 0.344218C5.62166 0.874107 4.9063 1.9889 5.06258 3.21074C4.32639 3.01081 3.62053 2.92162 3.00026 2.95786C2.83649 2.96744 2.71149 3.108 2.72108 3.27174C2.73066 3.43551 2.8711 3.56023 3.03495 3.55092C5.1675 3.42644 8.34616 5.01519 9.39449 6.66751C9.37893 6.67532 9.36336 6.68284 9.34783 6.6908C8.00064 7.37955 6.87935 8.5008 6.1906 9.84803C6.16098 9.90602 6.13266 9.96396 6.10493 10.0219C5.6636 9.97525 5.13752 9.98491 4.58505 9.99525C3.44373 10.0167 2.1502 10.041 1.63215 9.53257C1.46794 9.37142 1.38814 9.15663 1.38814 8.87595C1.38814 8.36229 1.93577 7.70872 2.79367 7.18833C3.33069 7.38335 3.90201 7.54887 4.41114 7.69588C5.03866 7.87708 5.63141 8.04826 5.91407 8.20922C5.96045 8.23563 6.01095 8.24819 6.06081 8.24819C6.16407 8.24819 6.26447 8.19425 6.3192 8.09808C6.4004 7.95554 6.35065 7.77415 6.20807 7.69295C5.86405 7.49702 5.26715 7.32466 4.57598 7.12508C4.03473 6.9688 3.42131 6.79164 2.86833 6.58303C1.09885 5.91599 1.02253 5.31651 1.11905 4.92366C1.24377 4.41619 1.52787 4.04378 1.96334 3.81687C2.10881 3.74107 2.16533 3.56165 2.08952 3.41618C2.01367 3.27067 1.8343 3.21419 1.68883 3.28999C1.09525 3.59928 0.709449 4.1012 0.542153 4.78187C0.267287 5.90054 1.34916 6.57242 2.12346 6.92135C1.55369 7.33103 0.794087 8.03487 0.794087 8.87587C0.794087 9.31815 0.936074 9.68173 1.21609 9.95652C1.91212 10.6396 3.27667 10.6139 4.59626 10.5892C5.05312 10.5806 5.49108 10.5725 5.86108 10.5971C5.69751 11.04 5.59113 11.4794 5.54411 11.9104C5.42724 12.9808 5.95546 14.0719 7.1141 15.1535C8.05422 16.0312 9.38332 16.8849 11.0646 17.6909C12.6669 18.4592 14.5439 19.1505 16.2145 19.5876C17.4241 19.9041 18.1508 19.9999 18.5942 19.9999C19.1129 19.9999 19.244 19.8688 19.3064 19.8064C19.5783 19.5344 19.5158 18.8663 19.4188 18.2486ZM7.10091 4.01862C6.63906 3.77735 6.16973 3.57393 5.70582 3.41123C5.42031 2.33846 6.0359 1.31837 6.8102 0.85367C7.73084 0.301127 8.34184 0.752952 8.56177 0.972884C9.24165 1.6528 9.47196 2.78791 9.69466 3.88563C9.8736 4.7675 10.0445 5.60877 10.4355 6.24729C10.2711 6.29732 10.106 6.35542 9.94046 6.42144C9.42237 5.56393 8.40561 4.70024 7.10091 4.01862Z" fill="black"/>
<path d="M9.80841 14.7509C9.88441 14.7509 9.96046 14.7219 10.0185 14.6639L11.9758 12.7066C12.0918 12.5906 12.0918 12.4025 11.9758 12.2865C11.8597 12.1705 11.6717 12.1705 11.5557 12.2865L9.59842 14.2438C9.48241 14.3598 9.48241 14.5479 9.59842 14.6639C9.65636 14.7219 9.73237 14.7509 9.80841 14.7509Z" fill="black"/>
<path d="M10.0123 8.61391C9.89627 8.4979 9.70822 8.4979 9.59221 8.61391L7.63492 10.5712C7.51891 10.6872 7.51891 10.8753 7.63492 10.9912C7.6929 11.0492 7.76894 11.0783 7.84495 11.0783C7.92095 11.0783 7.997 11.0493 8.05498 10.9912L10.0123 9.03396C10.1283 8.91796 10.1283 8.72987 10.0123 8.61391Z" fill="black"/>
</g>
<defs>
<clipPath id="clip0">
<rect width="20" height="20" fill="white"/>
</clipPath>
</defs>
</svg>
