<svg id="Capa_1" enable-background="new 0 0 512 512" height="512" viewBox="0 0 512 512" width="512" xmlns="http://www.w3.org/2000/svg"><g><path d="m492.805 198.28c0-25.929-8.481-51.677-23.886-72.538-2.282-3.091-6.543-4.2-9.881-2.296-3.989 2.275-4.988 7.431-2.336 11.004 6.906 9.304 12.237 19.724 15.814 30.716-13.059-13.458-31.332-21.836-51.521-21.836h-39.14c-17.883 0-32.38-14.497-32.38-32.38v-39.14c0-20.178-8.364-38.438-21.809-51.495 15.918 5.205 30.609 14.092 42.545 26.028l64.157 64.157c2.904 2.904 7.674 3.199 10.664.384 3.094-2.913 3.149-7.784.166-10.767l-64.38-64.38c-22.71-22.712-54.16-35.737-86.283-35.737h-.008-176.69c-26.167 0-47.38 21.213-47.38 47.38v47.44h-9.842c-22.876 0-41.42 18.544-41.42 41.42v286.95c0 22.876 18.544 41.42 41.42 41.42h10.865l.032 4.446c.039 5.482 1.155 10.93 3.493 15.889 7.69 16.311 24.152 27.055 42.821 27.055h327.6c26.12 0 47.37-21.254 47.37-47.38zm-432.19-88.46h9.842v52.84h-9.842c-7.05 0-13.683-2.75-18.677-7.743-4.993-4.993-7.743-11.626-7.743-18.677 0-14.568 11.852-26.42 26.42-26.42zm384.812 387.18h-327.6c-.462 0-.921-.01-1.379-.029-16.773-.698-29.843-14.879-29.962-31.666l-.005-.696h26.28c4.107 0 7.688-3.164 7.811-7.269.128-4.247-3.278-7.731-7.497-7.731h-52.46c-14.591 0-26.42-11.829-26.42-26.42v-255.06c7.418 6.169 16.661 9.531 26.42 9.531h268.86c24.787 0 44.88 20.094 44.88 44.88v182.19c0 24.786-20.093 44.88-44.88 44.88h-182.526c-4.107 0-7.688 3.164-7.811 7.269-.128 4.247 3.278 7.731 7.497 7.731h182.84c33.071 0 59.88-26.809 59.88-59.88v-182.19c0-33.071-26.809-59.88-59.88-59.88h-244.018v-115.28c0-17.883 14.497-32.38 32.38-32.38h159.828c31.375 0 56.81 25.435 56.81 56.81v39.14c0 26.167 21.213 47.38 47.38 47.38h39.14c31.215 0 56.624 25.308 56.802 56.483v249.817c0 17.877-14.493 32.37-32.37 32.37z"/><path d="m339.352 380.531v-133.797c0-18.791-15.288-34.078-34.078-34.078h-204.373c-17.479 0-31.698 14.22-31.698 31.698v138.557c0 17.479 14.22 31.698 31.698 31.698h204.373c18.791.001 34.078-15.287 34.078-34.078zm-255.15 2.381v-138.558c0-9.208 7.491-16.698 16.698-16.698h204.374c10.52 0 19.078 8.559 19.078 19.078v133.797c0 10.52-8.559 19.079-19.079 19.079h-204.372c-9.208 0-16.699-7.491-16.699-16.698z"/><path d="m251.943 292.36-50.61-29.22c-7.69-4.44-16.874-4.44-24.564 0s-12.282 12.393-12.282 21.273v58.439c0 8.88 4.591 16.833 12.282 21.273 3.846 2.22 8.063 3.331 12.282 3.33 4.218 0 8.437-1.11 12.282-3.33l50.61-29.22c7.69-4.44 12.282-12.393 12.282-21.272 0-8.88-4.591-16.833-12.282-21.273zm-7.5 29.556-50.61 29.22c-4.316 2.491-8.125.83-9.564 0-1.438-.83-4.782-3.299-4.782-8.283v-58.439c0-4.984 3.344-7.453 4.782-8.283.874-.504 2.624-1.316 4.831-1.316 1.425 0 3.04.338 4.733 1.316l50.61 29.22c4.316 2.492 4.782 6.623 4.782 8.283s-.466 5.79-4.782 8.282z"/></g></svg>