<svg width="14" height="14" viewBox="0 0 14 14" fill="none" xmlns="http://www.w3.org/2000/svg">
<path d="M13.9585 6.87624C12.2384 4.59563 9.70208 3.28767 7 3.28767C4.29792 3.28767 1.76162 4.59566 0.0414258 6.87624C-0.0138086 6.94949 -0.0138086 7.05045 0.0414258 7.12373C1.76162 9.40433 4.29792 10.7123 7 10.7123C9.70208 10.7123 12.2384 9.40436 13.9585 7.12376C14.0138 7.05047 14.0138 6.94949 13.9585 6.87624ZM7 10.3014C4.47718 10.3014 2.10372 9.10022 0.464461 7C2.10372 4.89978 4.47718 3.69862 7 3.69862C9.52279 3.69862 11.8963 4.89978 13.5355 7C11.8963 9.10022 9.52279 10.3014 7 10.3014Z" fill="black"/>
<path d="M9.44335 4.82071C9.3678 4.73605 9.23789 4.72864 9.1532 4.80422C9.06855 4.8798 9.06116 5.00971 9.13672 5.09436C9.60506 5.61909 9.86302 6.2959 9.86302 7C9.86302 8.57867 8.57866 9.863 6.99999 9.863C5.4213 9.863 4.13697 8.57864 4.13697 7C4.13697 5.42137 5.4213 4.13698 6.99999 4.13698C7.46221 4.13698 7.90332 4.24367 8.31099 4.45406C8.41178 4.50604 8.53575 4.46652 8.58782 4.36568C8.63985 4.26484 8.60029 4.14089 8.49944 4.08885C8.03949 3.85148 7.521 3.72603 7.00002 3.72603C5.19473 3.72603 3.72604 5.19471 3.72604 7C3.72604 8.80529 5.1947 10.274 6.99999 10.274C8.80528 10.274 10.274 8.80526 10.274 7C10.274 6.19478 9.97896 5.42085 9.44335 4.82071Z" fill="black"/>
<path d="M7.00001 5.69864C6.28246 5.69864 5.69864 6.28243 5.69864 7.00001C5.69864 7.71757 6.28246 8.30138 7.00001 8.30138C7.71756 8.30138 8.30138 7.71757 8.30138 7.00001C8.30138 6.28246 7.71756 5.69864 7.00001 5.69864ZM7.00001 7.89041C6.50905 7.89041 6.10959 7.49097 6.10959 6.99998C6.10959 6.509 6.50905 6.10956 7.00001 6.10956C7.49099 6.10956 7.89043 6.509 7.89043 6.99998C7.89043 7.49097 7.49099 7.89041 7.00001 7.89041Z" fill="black"/>
</svg>
