<svg id="Layer_1" enable-background="new 0 0 512 512" height="512" viewBox="0 0 512 512" width="512" xmlns="http://www.w3.org/2000/svg"><g><path d="m511.531 124.692c-2.744-10.733-15.652-15.386-32.524-20.401 21.282-28.775 25.107-61.228 7.519-78.816-10.276-10.277-25.942-13.546-44.112-9.21-11.706 2.795-23.626 8.59-34.699 16.744-5.017-16.881-9.669-29.795-20.406-32.54-9.943-2.545-18.452 5.964-21.246 8.759-23.253 23.252-28.513 58.42-16.762 90.363-16.359-8.878-35.408-13.379-58.198-8.382-4.046.887-6.607 4.886-5.72 8.932s4.889 6.607 8.932 5.72c32.299-7.083 55.169 7.647 79.527 31.969.056.056.107.114.162.17.098.098.198.192.296.289 30.635 30.705 53.181 64.317 8.171 128.478-87.629-56.764-123.748-108.39-138.104-136.622 7.567-5.35 14.864-9.883 21.925-13.602 3.665-1.93 5.072-6.465 3.142-10.13s-6.466-5.072-10.13-3.142c-19.845 10.449-41.159 26.587-64.88 49.152-6.581-15.612-16.611-25.119-28.137-31.015 4.542-1.964 8.859-4.385 12.863-7.265 14.163-10.187 22.88-24.783 24.546-41.101.312-3.041 1.258-12.294-5.502-17.295-6.545-4.843-15.084-2.469-25.613 1.772-.761-8.58-2.847-16.628-6.172-23.525-5.965-12.372-15.207-19.794-26.023-20.899-10.812-1.107-21.368 4.295-29.71 15.206-4.65 6.081-8.319 13.54-10.799 21.787-9.446-6.279-17.324-10.328-24.714-6.911-7.634 3.529-8.582 12.786-8.893 15.829-1.684 16.486 4.015 32.668 16.048 45.566 3.233 3.466 6.833 6.567 10.715 9.301-8.277 2.285-16.303 6.286-23.596 12.926-18.186 16.556-28.909 46.333-33.744 93.71-1.516 14.837-2.391 30.967-2.601 47.941-.051 4.141 3.265 7.541 7.406 7.592h.095c4.098 0 7.446-3.297 7.497-7.407.205-16.529 1.054-32.207 2.525-46.602 4.378-42.889 13.838-70.412 28.92-84.142 11.152-10.153 25.406-13.305 49.199-10.875.006.001.012.002.018.003s.012 0 .019.001c26.813 2.737 45.354 10.022 53.93 36.89-46.89 47.164-96.386 111.77-131.983 171.965-1.037-11.47-1.785-23.2-2.223-35.088-.153-4.139-3.637-7.366-7.771-7.218-4.139.153-7.371 3.632-7.218 7.771.719 19.509 2.249 38.622 4.532 56.875-28.198 51.956-53.436 115.627-26.657 142.406 7.589 7.589 18.503 11.379 32.671 11.379 18.502 0 42.551-6.468 71.961-19.389 43.109-18.939 94.941-50.635 145.949-89.251 3.303-2.5 3.953-7.204 1.453-10.506-2.498-3.302-7.203-3.953-10.506-1.453-1.943 1.471-3.883 2.925-5.82 4.371-78.114-50.612-115.369-96.893-133.033-127.954 16.108-21.781 33.139-42.908 50.283-62.313 9.838 18.426 23.806 37.281 41.643 56.174 26.951 28.547 62.056 56.288 104.4 82.536-10.241 9.16-21.093 18.389-32.486 27.62-3.218 2.607-3.713 7.33-1.105 10.548 1.482 1.829 3.647 2.779 5.831 2.779 1.659 0 3.328-.548 4.717-1.673 23.021-18.652 43.902-37.319 62.064-55.48 47.492-47.492 71.492-87.209 73.373-121.419.915-16.64-3.363-31.086-10.279-43.833 10.887 3.993 22.147 6.011 33.182 6.01 21.315-.001 41.79-7.522 57.096-22.828 2.792-2.796 11.299-11.302 8.756-21.247zm-322.758-53.175c-1.587 15.544-12.173 28.468-26.975 35.404 5.656-9.208 9.394-20.695 10.65-32.994.004-.039.006-.077.01-.116 5.385-2.27 12.999-5.456 16.389-5.729.07.684.096 1.78-.074 3.435zm-66.182-34.104c2.768-3.62 8.285-9.458 15.072-9.458.395 0 .796.02 1.199.062 7.334.748 11.942 8.148 14.036 12.492 3.658 7.586 5.375 17.164 4.954 27.351-.031.277-.045.556-.045.836-.065 1.228-.153 2.463-.28 3.706-1.212 11.862-5.112 22.622-10.982 30.299-1.811 2.369-4.807 5.685-8.559 7.696l6.319-61.865c.42-4.121-2.578-7.802-6.699-8.223-4.13-.426-7.802 2.578-8.223 6.698l-6.319 61.867c-3.27-2.728-5.531-6.582-6.826-9.269-4.197-8.705-5.841-20.031-4.63-31.893 1.213-11.862 5.113-22.622 10.983-30.299zm-41.4 23.12c.17-1.659.419-2.73.625-3.386 3.262.951 10.072 5.61 14.886 8.922-.004.04-.01.079-.014.119-1.261 12.345.092 24.394 3.8 34.579-2.592-1.93-5.008-4.071-7.204-6.425-9.035-9.687-13.331-21.694-12.093-33.809zm-59.204 429.482c-14.886-14.886-5.815-57.257 24.128-115.024 22.893 30.5 54.689 60.343 94.752 88.914-58.077 30.603-103.294 41.697-118.88 26.11zm212.185-84.767c-27.366 19.742-53.954 36.79-78.613 50.654-44.193-30.735-78.343-62.861-101.574-95.559.652-1.177 1.294-2.347 1.962-3.535 13.904-24.729 30.486-50.525 48.497-75.76 19.322 31.688 56.927 76.186 129.728 124.2zm104.623-87.846c-5.389 5.389-11.029 10.826-16.896 16.296-95.603-58.492-132.781-111.723-146.823-140.108 6.532-7.096 13.055-13.915 19.524-20.384 13.319-13.319 25.792-24.582 37.589-33.931 18.133 34.694 57.205 84.932 141.308 139.548-9.306 11.834-20.768 24.645-34.702 38.579zm118.597-288.003c7.517 0 13.992 2.146 18.528 6.681 14.099 14.099 5.104 46.918-19.643 71.665-12.644 12.644-27.433 21.476-41.642 24.868-9.324 2.226-17.466 1.862-23.707-.936l67.583-67.583c2.929-2.929 2.929-7.677 0-10.606s-7.677-2.929-10.606 0l-67.583 67.583c-2.798-6.24-3.162-14.382-.936-23.707 3.392-14.209 12.224-28.998 24.868-41.642 16.788-16.785 37.286-26.323 53.138-26.323zm-80.724-9.565c4.808-4.808 6.92-4.833 6.922-4.834.017.005 1.773.7 4.448 6.799 2.332 5.319 4.476 12.646 6.747 20.403.136.463.279.943.416 1.41-.518.5-1.04.993-1.551 1.505-14.578 14.577-24.824 31.896-28.852 48.765-.222.93-.411 1.85-.593 2.766-10.895-27.197-7.08-57.269 12.463-76.814zm115.498 115.499c-19.542 19.542-49.611 23.358-76.805 12.468.913-.182 1.831-.376 2.758-.597 16.869-4.028 34.187-14.274 48.765-28.852.513-.513 1.002-1.034 1.503-1.551.468.137.948.28 1.412.416 7.757 2.27 15.084 4.415 20.403 6.747 6.099 2.674 6.795 4.43 6.797 4.431.001.018-.024 2.129-4.833 6.938z"/></g></svg>