<svg width="24" height="24" viewBox="0 0 24 24" fill="none" xmlns="http://www.w3.org/2000/svg">
<path d="M23.9054 17.8441C23.6224 16.9563 22.7909 16.417 22.1433 16.1209C20.8128 15.5126 19.3536 14.219 18.0484 12.7416L18.2432 12.6221C18.4107 12.5192 18.4632 12.2998 18.3603 12.1323C18.2574 11.9646 18.0381 11.9123 17.8705 12.0151L17.5787 12.1943C17.4081 11.9899 17.2411 11.7832 17.0781 11.5755L17.3679 11.3872C17.5328 11.2801 17.5795 11.0595 17.4723 10.8946C17.3652 10.7296 17.1445 10.6828 16.9797 10.79L16.6445 11.0079C16.4568 10.7553 16.2762 10.5028 16.1037 10.2527L16.3525 10.0982C16.5196 9.99443 16.5709 9.77487 16.4671 9.60781C16.3632 9.44065 16.1437 9.38937 15.9766 9.49325L15.7077 9.66036C15.2383 8.93525 14.8494 8.24613 14.5734 7.64988C14.5335 7.54291 14.1938 6.56191 14.8711 5.88466C15.0101 5.74558 15.0101 5.52007 14.871 5.38103C14.732 5.24196 14.5065 5.24196 14.3674 5.38103C13.6373 6.11116 13.6988 7.04158 13.8077 7.54999C13.382 7.67084 12.5813 7.87132 11.6819 7.96132C9.54821 8.17498 8.49961 7.61932 7.99594 7.1156C6.1658 5.2855 6.04711 3.46173 6.04617 3.44476C6.03919 3.29542 5.93967 3.16642 5.79708 3.12165C5.65439 3.07689 5.49909 3.12592 5.40801 3.24451L0.073678 10.189C0.0131154 10.268 -0.0117284 10.3685 0.0051935 10.4666C0.0221154 10.5646 0.0792561 10.651 0.162787 10.705C0.262444 10.7695 10.1633 17.1688 12.9534 18.8628C15.2242 20.2415 18.3104 20.8949 20.6734 20.8948C21.3869 20.8948 22.0348 20.8352 22.574 20.718C22.6626 20.6987 22.7405 20.6464 22.7919 20.5717L23.8989 18.9614C23.8997 18.9603 23.9002 18.959 23.901 18.9578C23.9096 18.945 23.9173 18.9317 23.9242 18.9179C23.9255 18.9153 23.9266 18.9128 23.9278 18.9101C23.9339 18.8971 23.9392 18.8837 23.9437 18.87C23.9442 18.8686 23.9449 18.8673 23.9453 18.8659C23.9456 18.8649 23.9462 18.8628 23.9466 18.8615C23.9471 18.86 23.9475 18.8585 23.9479 18.857C23.97 18.7822 24.0743 18.3736 23.9054 17.8441ZM8.51752 13.7541C11.2426 15.4962 13.1075 16.6732 14.0606 17.2524C16.3314 18.6312 19.4176 19.2845 21.7805 19.2845C22.1565 19.2845 22.5136 19.2675 22.8468 19.2346L22.2863 20.0499C21.1768 20.2626 19.6511 20.2251 18.0693 19.9439C16.2795 19.6257 14.5939 19.0255 13.3231 18.254C10.8282 16.7393 2.61304 11.4395 0.873835 10.3165L1.63227 9.32914C4.17107 10.9676 6.13284 12.227 7.34363 13.0029C7.40311 13.041 7.46958 13.0592 7.53539 13.0592C7.65272 13.0592 7.76756 13.0012 7.83553 12.8951C7.94166 12.7295 7.89347 12.5093 7.72781 12.4032C7.19152 12.0595 6.50756 11.6208 5.69165 11.0964C6.0644 10.41 6.2602 9.64104 6.2602 8.85181C6.2602 7.75695 5.87615 6.69044 5.17889 5.84875C5.05336 5.69725 4.82883 5.67625 4.67742 5.80169C4.52601 5.92718 4.50492 6.15171 4.6304 6.30311C5.22211 7.0173 5.54798 7.92246 5.54798 8.85176C5.54798 9.50393 5.39025 10.1394 5.09034 10.7098C4.20778 10.1422 3.19499 9.48996 2.06756 8.76237L5.48775 4.30966C5.70553 5.10236 6.23044 6.35735 7.49217 7.61909C9.30366 9.43057 12.9718 8.53798 14.0572 8.22054C14.3337 8.77887 14.6919 9.39696 15.105 10.0346L13.8951 10.7862C13.728 10.89 13.6767 11.1095 13.7805 11.2766C13.848 11.3852 13.9643 11.4448 14.0834 11.4448C14.1476 11.4448 14.2125 11.4275 14.271 11.3912L15.5009 10.6272C15.6768 10.8829 15.86 11.1396 16.0489 11.3951L15.0874 12.02C14.9225 12.1273 14.8757 12.3478 14.9829 12.5128C15.0512 12.6178 15.1653 12.6748 15.2818 12.6748C15.3483 12.6748 15.4157 12.6562 15.4756 12.6172L16.4807 11.9639C16.6402 12.1685 16.8026 12.3709 16.9669 12.5699L16.0728 13.119C15.9052 13.2219 15.8528 13.4412 15.9557 13.6088C16.0229 13.7183 16.1398 13.7786 16.2595 13.7786C16.323 13.7786 16.3873 13.7616 16.4455 13.7259L17.4336 13.1192C19.3817 15.3518 20.9009 16.3361 21.8471 16.7686C23.1369 17.3583 23.294 18.1087 23.2888 18.4584C22.189 18.6495 20.7093 18.606 19.1765 18.3335C17.3867 18.0153 15.7011 17.4151 14.4304 16.6437C13.482 16.0673 11.6217 14.8932 8.90114 13.154C8.73539 13.0481 8.51527 13.0965 8.40928 13.2622C8.30339 13.4279 8.35182 13.6481 8.51752 13.7541Z" fill="black"/>
</svg>
