<?xml version="1.0" standalone="no"?>
<!DOCTYPE svg PUBLIC "-//W3C//DTD SVG 20010904//EN"
 "http://www.w3.org/TR/2001/REC-SVG-20010904/DTD/svg10.dtd">
<svg version="1.0" xmlns="http://www.w3.org/2000/svg"
 width="693.000000pt" height="443.000000pt" viewBox="0 0 693.000000 443.000000"
 preserveAspectRatio="xMidYMid meet">
<metadata>
Created by potrace 1.15, written by Peter Selinger 2001-2017
</metadata>
<g transform="translate(0.000000,443.000000) scale(0.100000,-0.100000)"
fill="#000000" stroke="none">
<path d="M2851 4409 c-98 -29 -191 -137 -191 -224 0 -30 -12 -36 -130 -66
-144 -35 -180 -71 -180 -176 0 -114 61 -248 166 -367 l42 -46 56 51 c31 28 69
72 84 98 24 42 27 55 27 143 l0 98 35 14 c46 18 192 53 255 61 93 12 236 -25
277 -72 8 -10 19 -44 23 -75 3 -32 10 -58 14 -58 27 0 183 218 201 281 36 124
-25 258 -145 322 -63 34 -163 30 -237 -7 -53 -27 -59 -28 -75 -14 -45 40 -150
57 -222 37z"/>
<path d="M2230 2730 c-194 -5 -195 -5 -262 -37 -129 -61 -189 -138 -261 -338
-20 -55 -97 -266 -172 -469 -74 -203 -135 -372 -135 -376 0 -3 78 -16 173 -28
340 -43 551 -73 556 -77 4 -5 -88 -425 -95 -434 -1 -2 -62 11 -134 28 -138 32
-171 37 -155 22 12 -10 359 -91 392 -91 34 0 910 -218 948 -236 25 -12 61 -55
140 -170 l106 -154 128 0 129 0 6 122 c3 68 8 274 11 458 3 184 8 441 11 572
l7 236 36 15 c38 16 188 83 334 149 49 22 90 38 92 36 2 -2 -14 -73 -35 -158
-41 -162 -46 -191 -31 -174 5 5 27 81 49 169 40 157 40 162 31 255 -11 109
-51 233 -100 317 -78 130 -229 258 -368 312 -107 41 -170 50 -381 52 -253 2
-230 6 -230 -38 -1 -80 -65 -169 -150 -206 -88 -39 -198 -17 -268 52 -43 44
-62 82 -69 142 -3 27 -11 49 -17 50 -41 4 -115 3 -286 -1z"/>
</g>
</svg>
