<svg xmlns="http://www.w3.org/2000/svg" viewBox="0 0 652 652" width="652" height="652">
	<style>
		tspan { white-space:pre }
		.shp0 { fill: #c3c3c3 } 
		.shp1 { fill: #848484 } 
	</style>
	<g id="Layer">
		<path id="Layer" class="shp0" d="M302.5 260.9C321.2 245.8 349.5 241.3 373.6 247.9C382.6 250.2 393 254.5 395 263.3C395.2 270.6 391.8 277.6 390.4 284.7C379 275.5 362.4 272.5 347.3 274.6C331 277.5 319.4 289.7 313.4 302.5C306.4 317.6 303.2 334.9 309.5 350.6C312.8 359 320.5 366.2 330.4 368.9C346.1 373 363 367.9 374.7 358.4C372.4 367.5 371.2 376.9 368.3 385.9C365.3 393.3 355.8 396 347.7 397.3C326.4 400.7 301.8 396.9 286.8 382.4C272 368.4 268.7 348.5 269.4 330.2C270.5 304.9 280.3 278.4 302.5 260.9Z" />
		<path id="Layer" fill-rule="evenodd" class="shp0" d="M160.2 250.9C175.9 248.4 191.9 246.9 207.8 247.3C222.4 248 238.1 250.7 249 260C261.9 270.7 262.3 289.8 251.9 302C245.6 309.4 236.4 314.8 226.1 316.9C234.2 319.8 242.2 324 246.1 331.2C255.5 348 250.4 369.9 234.4 382.2C221.7 392.4 204.1 396 187.4 397C175 397.4 162.2 397.1 150.2 393.7C143.8 392 138.8 387.5 136.7 382C133.6 374 134.8 365.3 136.7 357.2C144.7 321.7 152.1 286.2 160.2 250.9ZM189.5 272.6C187.4 282.8 184.8 292.9 183.1 303.1C182.6 306 186.5 307.2 189.1 306.8C199.7 307.1 211.7 306 219.5 299C226.6 292.5 227.5 279.5 217.6 274.7C209.1 270.5 198.9 272.4 189.5 272.6ZM177.2 329.7C174.4 339.4 172.8 349.3 170.5 359.1C169.7 363.3 167.3 367.9 170.9 371.6C182.2 371.6 194.3 372.3 204.2 366.6C216 360.6 219.9 344.4 210.1 335.5C201.1 328.5 188.3 330.1 177.2 329.7Z" />
		<path id="Layer" fill-rule="evenodd" class="shp0" d="M418.6 251.7C429.6 248.7 441.4 248.4 452.9 248C468.8 247.8 485.7 248.2 499.7 255.6C510.5 260.9 516.9 271.2 518.2 281.6C521.9 304.8 508.6 329.8 484.5 341C468.6 348.8 449.9 349.3 432.1 348.3C429.2 359.8 427.3 371.5 424.2 382.9C422.6 389 418.2 394.9 411 396.8C402.8 397.5 394.6 396.9 386.4 397.1C397.7 348.7 407.5 300.1 418.6 251.7ZM450.5 273.7C447.4 287.7 444.2 301.7 441.4 315.8C440.4 318.6 442.7 321.3 445.5 322.5C454.1 323.9 463.3 322.6 470.9 318.8C485.2 311.5 491.2 294.4 484.7 281.3C477.9 271 462.1 272.8 450.5 273.7Z" />
		<path id="Layer" class="shp0" d="M534.5 284.1C539.5 273.7 546.3 262.7 558.7 258.2C565 256.1 571.6 259 575.3 263.5C582.7 279.6 580.9 297.6 575.1 313.8C563.9 301.7 550.2 291.4 534.5 284.1Z" />
		<path id="Layer" class="shp1" d="M575.3 263.5C589.4 269.9 599.6 281.4 609.2 292.3C616.6 300.4 621.5 310.7 620.3 321.3C619.5 330.3 614.2 338.3 608.1 345.2C596 359.1 581 370.9 564.7 380.9C558 384.7 549.8 388.1 541.7 385.9C530.7 383.4 523.3 374.7 518.9 365.9C542.9 354.1 565.2 337.1 575.2 313.8C581 297.6 582.7 279.6 575.3 263.5Z" />
		<path id="Layer" class="shp0" d="M36.1 284.1C41.1 273.7 47.9 262.7 60.3 258.2C66.6 256.1 73.2 259 76.9 263.5C84.3 279.6 82.5 297.6 76.7 313.8C65.6 301.7 51.8 291.4 36.1 284.1Z" />
		<path id="Layer" class="shp1" d="M77 263.5C91.1 269.9 101.3 281.4 110.9 292.3C118.3 300.4 123.2 310.7 122 321.3C121.2 330.3 115.9 338.3 109.8 345.2C97.7 359.1 82.7 370.9 66.4 380.9C59.7 384.7 51.5 388.1 43.4 385.9C32.4 383.4 25 374.7 20.6 365.9C44.6 354.1 66.9 337.1 76.9 313.8C82.6 297.6 84.4 279.6 77 263.5Z" />
	</g>
</svg>