<svg xmlns="http://www.w3.org/2000/svg" viewBox="0 0 1297 249" width="1297" height="249">
	<style>
		tspan { white-space:pre }
		.shp0 { fill: #ffffff } 
	</style>
	<path id="Layer" fill-rule="evenodd" class="shp0" d="M217.31 0L259.97 0L206.78 197.91L163.53 197.91L130 63.21L129.42 63.21L96.44 197.91L52.36 197.91L0 0L43.51 0L74.82 134.73L75.37 134.73L109.75 0L150.49 0L184.3 136.38L184.87 136.38L217.31 0ZM400.91 85.49C402.5 92.83 403.28 100.92 403.28 109.77L403.28 197.91L363.93 197.91L363.93 116.98C363.93 105.16 362.07 96.33 358.37 90.53C354.65 84.68 348.13 81.77 338.7 81.77C327.98 81.77 320.19 85 315.41 91.34C310.6 97.71 308.21 108.24 308.21 122.79L308.21 197.91L268.84 197.91L268.84 0L308.21 0L308.21 74.6L309.04 74.6C314.02 66.27 320.4 60.2 328.18 56.42C335.93 52.63 343.49 50.76 350.89 50.76C361.44 50.76 370.06 52.18 376.8 55.03C383.56 57.9 388.88 61.88 392.73 66.95C396.64 72.06 399.37 78.23 400.91 85.49ZM554.91 166.04C554.91 167.59 554.93 169.14 554.97 170.69C555.02 172.24 555.08 173.79 555.17 175.34C555.26 176.89 555.37 178.44 555.51 179.98C555.65 181.53 555.8 183.07 555.99 184.61C556.74 190.56 558.03 194.97 559.89 197.91L519.98 197.91C519.24 195.71 518.63 193.43 518.18 191.13C518.07 190.54 517.96 189.96 517.86 189.37C517.76 188.78 517.67 188.19 517.59 187.6C517.51 187.01 517.44 186.42 517.38 185.83C517.31 185.24 517.26 184.65 517.21 184.05C510.93 190.56 503.51 195.04 495.02 197.66C486.55 200.24 477.84 201.54 468.97 201.54C462.15 201.54 455.76 200.69 449.87 199.06C443.97 197.38 438.75 194.78 434.34 191.27C429.9 187.77 426.44 183.33 423.94 177.96C421.42 172.61 420.2 166.24 420.2 158.86C420.2 150.73 421.61 144.01 424.45 138.75C427.32 133.47 431.04 129.27 435.58 126.13C440.1 122.97 445.28 120.63 451.09 119.05C456.93 117.49 462.78 116.24 468.7 115.33C470.14 115.1 471.59 114.88 473.05 114.68C474.5 114.47 475.95 114.27 477.4 114.09C478.86 113.9 480.31 113.73 481.77 113.56C483.23 113.4 484.69 113.24 486.14 113.1C491.9 112.54 496.96 111.71 501.43 110.6C505.82 109.5 509.33 107.9 511.94 105.74C514.53 103.63 515.73 100.54 515.52 96.47C515.52 92.22 514.87 88.84 513.47 86.36C512.1 83.85 510.24 81.93 507.95 80.53C505.61 79.16 502.92 78.23 499.89 77.76C496.82 77.3 493.57 77.08 490.06 77.08C482.26 77.08 476.18 78.74 471.78 82.07C467.32 85.37 464.7 90.94 464.01 98.67L424.62 98.67C425.17 89.45 427.47 81.77 431.57 75.69C435.6 69.61 440.8 64.7 447.08 60.98C453.35 57.31 460.43 54.68 468.27 53.11C476.14 51.52 484.06 50.76 491.98 50.76C499.19 50.76 506.5 51.26 513.88 52.26C521.29 53.27 528.03 55.27 534.14 58.22C540.2 61.19 545.22 65.29 549.05 70.55C552.96 75.81 554.91 82.79 554.91 91.5C554.91 91.5 554.91 166.04 554.91 166.04ZM515.52 127.8C513.88 129.27 511.78 130.41 509.31 131.26C508.65 131.48 507.99 131.68 507.33 131.88C506.66 132.07 506 132.25 505.33 132.43C504.66 132.6 503.99 132.76 503.31 132.91C502.64 133.06 501.96 133.2 501.28 133.33C498.42 133.89 495.4 134.35 492.25 134.72C489.11 135.11 485.98 135.58 482.83 136.1C479.87 136.67 476.96 137.4 474.12 138.32C471.23 139.25 468.72 140.52 466.63 142.08C464.49 143.65 462.78 145.64 461.47 148.02C460.22 150.43 459.52 153.49 459.52 157.17C459.52 160.68 460.22 163.64 461.47 166.04C462.78 168.46 464.53 170.35 466.77 171.73C468.97 173.1 471.54 174.07 474.5 174.63C475.26 174.77 476.02 174.89 476.79 175C477.55 175.1 478.31 175.19 479.08 175.26C479.85 175.33 480.62 175.38 481.39 175.42C482.15 175.45 482.92 175.47 483.69 175.47C491.41 175.47 497.43 174.16 501.65 171.57C505.9 169 509.05 165.9 511.1 162.28C513.15 158.69 514.4 155.06 514.87 151.36C515.31 147.67 515.52 144.7 515.52 142.49L515.52 127.8ZM628.33 11.66L628.33 54.62L657.18 54.62L657.18 80.92L628.33 80.92L628.33 151.89C628.33 158.56 629.5 163.01 631.67 165.2C633.87 167.44 638.33 168.54 644.99 168.54C647.2 168.54 649.34 168.46 651.34 168.27C651.83 168.22 652.32 168.17 652.81 168.12C653.3 168.06 653.78 168 654.27 167.93C654.76 167.86 655.24 167.78 655.73 167.7C656.21 167.62 656.69 167.53 657.18 167.44L657.18 197.91C653.84 198.5 650.14 198.84 646.11 199.06C642.03 199.22 638.07 199.31 634.17 199.31C628.06 199.31 622.29 198.89 616.86 198.08C611.41 197.23 606.59 195.61 602.45 193.21C598.24 190.83 595.01 187.39 592.58 182.94C590.2 178.52 588.99 172.72 588.99 165.5L588.99 80.92L565.18 80.92L565.18 54.62L588.99 54.62L588.99 11.66L628.33 11.66ZM791.06 135.15C793.66 139.67 794.92 145.25 794.93 151.89C794.93 161.33 793.03 169.23 789.25 175.59C785.47 181.97 780.54 187.09 774.41 190.97C768.35 194.88 761.37 197.62 753.52 199.18C745.63 200.73 737.67 201.54 729.53 201.54C727.48 201.54 725.44 201.49 723.39 201.39C721.35 201.29 719.31 201.13 717.27 200.92C715.24 200.71 713.21 200.46 711.18 200.14C709.16 199.83 707.15 199.47 705.14 199.06C697.2 197.38 690.14 194.61 683.93 190.72C677.72 186.84 672.67 181.68 668.67 175.34C664.68 168.96 662.55 160.97 662.14 151.36L699.59 151.36C699.59 155.61 700.5 159.24 702.21 162.28C703.98 165.37 706.25 167.83 709.01 169.76C711.78 171.73 714.95 173.16 718.58 174.07C722.16 175 725.92 175.47 729.83 175.47C732.57 175.47 735.49 175.13 738.53 174.5C741.57 173.86 744.37 172.85 746.85 171.45C747.47 171.11 748.06 170.74 748.64 170.33C749.21 169.93 749.76 169.49 750.29 169.02C750.81 168.56 751.31 168.06 751.78 167.54C752.24 167.02 752.68 166.47 753.09 165.89C754.74 163.59 755.58 160.68 755.58 157.17C755.58 151.25 751.66 146.82 743.82 143.88C735.95 140.9 725.01 137.94 710.91 135.02C709.5 134.7 708.1 134.37 706.69 134.01C705.29 133.66 703.89 133.29 702.5 132.91C701.1 132.52 699.71 132.12 698.32 131.71C696.94 131.29 695.56 130.86 694.18 130.41C688.73 128.69 683.87 126.36 679.62 123.49C675.4 120.63 671.95 117.07 669.39 112.68C666.83 108.36 665.5 103.04 665.5 96.73C665.5 87.51 667.28 79.94 670.89 74C674.5 68.08 679.28 63.44 685.18 60.01C691.09 56.6 697.73 54.21 705.14 52.83C712.52 51.43 720.08 50.76 727.88 50.76C735.61 50.76 743.12 51.47 750.45 52.96C757.76 54.43 764.29 56.93 770.02 60.43C775.72 63.94 780.47 68.61 784.28 74.42C788.08 80.26 790.32 87.62 791.06 96.47L753.66 96.47C753.09 88.9 750.22 83.79 745.06 81.11C739.86 78.39 733.79 77.08 726.74 77.08C724.55 77.08 722.16 77.22 719.54 77.47C716.93 77.76 714.61 78.35 712.46 79.28C710.36 80.22 708.53 81.56 707.11 83.29C705.59 85.08 704.85 87.4 704.85 90.36C704.85 93.91 706.14 96.73 708.74 98.98C711.33 101.17 714.67 102.99 718.84 104.39C722.98 105.74 727.78 107 733.12 108.11C734.49 108.4 735.85 108.69 737.22 108.98C738.58 109.27 739.94 109.57 741.31 109.87C742.67 110.16 744.03 110.47 745.39 110.78C746.75 111.08 748.11 111.39 749.47 111.71C755.2 113.03 760.8 114.57 766.25 116.42C771.68 118.29 776.54 120.72 780.81 123.76C785.04 126.83 788.5 130.61 791.06 135.15ZM913.85 0L987.85 197.91L942.67 197.91L927.69 153.82L853.69 153.82L838.18 197.91L794.42 197.91L869.22 0L913.85 0ZM916.34 121.42L891.41 48.81L890.84 48.81L865.08 121.42L916.34 121.42ZM1123.95 74C1129.32 81.05 1133.25 89.21 1135.89 98.55C1138.46 107.9 1139.73 117.62 1139.73 127.8C1139.73 137.4 1138.46 146.65 1135.89 155.52C1133.25 164.41 1129.36 172.24 1124.1 179.06C1118.81 185.91 1112.28 191.36 1104.38 195.42C1096.55 199.49 1087.37 201.55 1076.83 201.55C1067.98 201.55 1059.77 199.72 1052.29 196.11C1044.82 192.53 1038.62 187.21 1033.85 180.19L1033.34 180.19L1033.34 248.09L993.95 248.09L993.95 54.62L1031.39 54.62L1031.39 72.9L1031.93 72.9C1036.74 65.15 1042.83 59.51 1050.22 56.02C1057.62 52.49 1065.73 50.76 1074.61 50.76C1085.87 50.76 1095.59 52.87 1103.73 57.1C1111.86 61.37 1118.62 67 1123.95 74ZM1098.74 143.6C1099.01 142.21 1099.25 140.81 1099.46 139.41C1099.67 138 1099.84 136.6 1099.98 135.19C1100.12 133.77 1100.22 132.36 1100.29 130.94C1100.36 129.53 1100.39 128.11 1100.39 126.69C1100.39 125.27 1100.36 123.85 1100.28 122.43C1100.21 121.01 1100.1 119.6 1099.95 118.19C1099.8 116.77 1099.61 115.36 1099.38 113.96C1099.16 112.56 1098.89 111.16 1098.59 109.77C1097.38 104.24 1095.44 99.3 1092.61 94.95C1089.86 90.59 1086.3 87.1 1081.96 84.42C1077.63 81.75 1072.31 80.38 1066.03 80.38C1059.55 80.38 1054.15 81.75 1049.83 84.42C1045.47 87.1 1041.92 90.57 1039.3 94.79C1036.59 99.07 1034.71 103.96 1033.59 109.5C1032.46 115.04 1031.93 120.75 1031.93 126.69C1031.93 132.4 1032.52 138.07 1033.74 143.6C1034.92 149.14 1036.87 153.99 1039.56 158.15C1040.23 159.19 1040.96 160.18 1041.75 161.14C1042.54 162.09 1043.39 163 1044.28 163.85C1045.18 164.7 1046.13 165.5 1047.12 166.24C1048.11 166.98 1049.15 167.65 1050.23 168.27C1054.68 170.85 1060.01 172.14 1066.3 172.14C1072.73 172.14 1078.18 170.85 1082.49 168.27C1086.86 165.71 1090.35 162.28 1093.03 158.15C1095.74 153.99 1097.62 149.14 1098.74 143.6ZM1292.76 98.55C1295.35 107.9 1296.64 117.62 1296.64 127.8C1296.64 137.4 1295.35 146.65 1292.76 155.52C1290.14 164.41 1286.27 172.24 1280.97 179.06C1275.7 185.91 1269.13 191.36 1261.28 195.42C1253.44 199.49 1244.24 201.55 1233.74 201.55C1224.85 201.55 1216.66 199.72 1209.19 196.11C1201.73 192.53 1195.54 187.21 1190.74 180.19L1190.19 180.19L1190.19 248.09L1150.83 248.09L1150.83 54.62L1188.27 54.62L1188.27 72.9L1188.8 72.9C1193.61 65.15 1199.72 59.51 1207.09 56.02C1214.47 52.49 1222.65 50.76 1231.48 50.76C1242.76 50.76 1252.46 52.87 1260.62 57.1C1268.76 61.37 1275.45 67 1280.84 74C1286.21 81.05 1290.14 89.21 1292.76 98.55ZM1255.59 143.6C1256.73 138.07 1257.28 132.4 1257.28 126.69C1257.28 120.95 1256.69 115.33 1255.46 109.77C1254.28 104.24 1252.29 99.3 1249.5 94.95C1246.72 90.59 1243.19 87.1 1238.84 84.42C1234.48 81.75 1229.18 80.38 1222.9 80.38C1216.46 80.38 1211.02 81.75 1206.7 84.42C1202.36 87.1 1198.83 90.57 1196.17 94.79C1193.49 99.07 1191.57 103.96 1190.46 109.5C1189.37 115.04 1188.8 120.75 1188.8 126.69C1188.8 128.11 1188.83 129.53 1188.91 130.95C1188.98 132.37 1189.09 133.78 1189.24 135.19C1189.39 136.6 1189.58 138.01 1189.81 139.41C1190.03 140.81 1190.29 142.21 1190.59 143.6C1191.79 149.14 1193.76 153.99 1196.45 158.15C1199.13 162.28 1202.65 165.71 1207.09 168.27C1211.51 170.85 1216.92 172.14 1223.17 172.14C1229.64 172.14 1235.05 170.85 1239.38 168.27C1243.71 165.71 1247.27 162.28 1249.9 158.15C1252.59 153.99 1254.51 149.14 1255.59 143.6Z" />
</svg>